<svg xmlns="http://www.w3.org/2000/svg" xmlns:xlink="http://www.w3.org/1999/xlink" viewBox="0 0 880.77 784.15"><defs><style>.cls-1,.cls-6{fill:none;}.cls-2{clip-path:url(#clip-path);}.cls-3,.cls-9{fill:#dd5757;}.cls-4{fill:#fff;}.cls-5,.cls-6,.cls-7,.cls-9{stroke:#dd5757;stroke-linecap:round;stroke-linejoin:round;stroke-width:2px;}.cls-5{fill:url(#新規パターンスウォッチ_1);}.cls-7{fill:url(#新規パターンスウォッチ_2);}.cls-8{fill:#231f20;}</style><clipPath id="clip-path"><rect class="cls-1" width="94" height="94"/></clipPath><pattern id="新規パターンスウォッチ_1" data-name="新規パターンスウォッチ 1" width="94" height="94" patternTransform="translate(-142.47 93.64) rotate(45) scale(0.15)" patternUnits="userSpaceOnUse" viewBox="0 0 94 94"><rect class="cls-1" width="94" height="94"/><g class="cls-2"><rect class="cls-3" width="49" height="94"/></g></pattern><pattern id="新規パターンスウォッチ_2" data-name="新規パターンスウォッチ 2" width="188" height="188" patternTransform="translate(-6.11 -4.09) scale(0.15)" patternUnits="userSpaceOnUse" viewBox="0 0 188 188"><rect class="cls-1" width="188" height="188"/><rect class="cls-3" x="94" y="141" width="94" height="94"/><circle class="cls-4" cx="141" cy="188" r="15"/><rect class="cls-3" y="141" width="94" height="94"/><circle class="cls-4" cx="47" cy="188" r="15"/><rect class="cls-3" x="141" y="47" width="94" height="94"/><circle class="cls-4" cx="188" cy="94" r="15"/><rect class="cls-3" x="47" y="47" width="94" height="94"/><circle class="cls-4" cx="94" cy="94" r="15"/><rect class="cls-3" x="-47" y="47" width="94" height="94"/><circle class="cls-4" cy="94" r="15"/><rect class="cls-3" x="94" y="-47" width="94" height="94"/><circle class="cls-4" cx="141" r="15"/><rect class="cls-3" y="-47" width="94" height="94"/><circle class="cls-4" cx="47" r="15"/></pattern></defs><g id="レイヤー_2" data-name="レイヤー 2"><g id="レイヤー_1-2" data-name="レイヤー 1"><path class="cls-5" d="M759,55.84a60,60,0,0,0-31.27,111.22h62.54A60,60,0,0,0,759,55.84Zm0,98a38,38,0,1,1,38-38A38,38,0,0,1,759,153.84Z"/><path class="cls-6" d="M457.27,655.81h-23.5V490.31h-17v-25.5h147v-90H551.65v-25h12.12v-165h-15v-17h15V82.31h-55.5V71.81h143.5v10.5h-61.5v85.5h15.5v17h-15.5v165h155.5v-79h-22v-13h25v-62H727.4v-28h63v27H768.77v63h76.75v13.38H768.77v78.62h16v26h-16v103.5h111v27h-111v149.5h-24v-150h-65v-26h63V374.94H590.27v89.87h13.5v26H589v165h-25.5v-165H456.77Q457,573.31,457.27,655.81Z"/><path class="cls-6" d="M240.13,562.85c-13.6,16.75-39.36,29-39.36,29-64,21-101-27-106-76s-59-36-59-36c4-22-13-67-22-94s15-17,15-17c24-12,35,3,35,3,17-15,37-5,37-5,13-11,38-4,38-4,61-14,72,107,72,107s52.5-10.35,66.25-5.17"/><path class="cls-6" d="M102.65,510.51c55-8.36,107,4.25,124.69,9.34A32,32,0,0,1,243,529.7a18.85,18.85,0,0,1,4.13,7.32"/><path class="cls-6" d="M11.75,370.31s-16,13.5-9,26.5,18,46,16,105,35,84,96,98"/><path class="cls-6" d="M278,510.12c1.68-12.54,3.16-21.73,6.76-24.31,7-5,11-10,6-16s-37.4-21.25-42.2,59.88"/><path class="cls-6" d="M35.77,479.81s32,10,42,53,35,75,73,83,70-12,70-12,29.32-14.65,43.63-37.55"/><path class="cls-6" d="M57.89,578.71c-.12,2.1,4.88,47.1,4.88,47.1s6,5.8,6.75,0c.25-2,5-38.59,5-38.59"/><path class="cls-6" d="M98.8,595.72l2,65.09s3.75,4,7.38,0,7.28-61.91,7.28-61.91"/><path class="cls-6" d="M220.77,603.81l5,44s3.5,4,7.25,0l1.88-52.56"/><path class="cls-6" d="M303.14,531.67c16-.87,33.43-1.36,51.63-1.36,79,0,143,9.07,143,20.25s-64,20.25-143,20.25-143-9.06-143-20.25c0-8,33.18-15,81.24-18.26"/><path class="cls-6" d="M414.27,714.57c-29-2.68-47.54-9.82-50.77-30.81s-1.23-103.12,8.77-113h-34c10,9.83,12,92,8.77,113s-21.77,28.13-50.77,30.81-21,14.28-21,14.28c18,16.08,80,12.5,80,12.5s62,3.58,80-12.5C435.27,728.85,443.27,717.25,414.27,714.57Z"/><rect class="cls-7" x="614.77" y="312.75" width="107" height="37.12"/><path class="cls-6" d="M294.9,523.3l-2.56,18.33a8.93,8.93,0,0,0,1.47.13,9.29,9.29,0,0,0,1.09-18.46Z"/><path class="cls-4" d="M336.07,756.13c-2.38,0-23.34-.11-26.63-3.73a1,1,0,0,1,.62-1.63l1.34-.14c.4,0,.4,0,2.81-.38a30.66,30.66,0,0,1,3.54-.24c2.43-.08,4.53-.15,5.89-1.35,2.38-2.12,4.79-7.32,4.38-8.28-2.24-2.26-2.52-5.15-2.79-7.94a21.85,21.85,0,0,0-.57-3.71c-.74-2.59-6.66-8-11.33-10.31a1,1,0,0,1-.61-.93c.12-5.78-.52-9.85-1.08-10.92-.56.5-2.21,2.45-6,9.93l0,0-.05.08-.06.08-.06.06-.07.07-.08,0-.08,0-.08,0-.1,0H305l-.11,0h0a18.3,18.3,0,0,0-9.57,3.34A38.25,38.25,0,0,1,276,726.82l-.37,0c-4.49,0-20-4.45-29.32-7.65l-.06,0c-.18-.07-17.77-7.48-31-5.07h-.4l-.14-.05h0l-.12-.07,0,0-.1-.09a.08.08,0,0,1,0,0l-.08-.09,0-.06a.41.41,0,0,1-.05-.09l0-.08,0-.1a.24.24,0,0,1,0-.08v0h0c-1.9-12.71-10.57-15.62-14.21-16.28a56.28,56.28,0,0,0-18.77-.38,42.84,42.84,0,0,1-9.4.39,34.41,34.41,0,0,1-5-1c-3.91-1-6.16-1.41-7.08.66a1.94,1.94,0,0,0,.17,1.53,10.5,10.5,0,0,0,6.27,4.72c4,1.17,8.76,1.23,19,.23,5.79-.57,10.68.7,14.13,3.66a15.73,15.73,0,0,1,5.23,11.27v.08a.57.57,0,0,1,0,.13v0a1.09,1.09,0,0,1-.13.34h0a.76.76,0,0,1-.11.14s0,0,0,0l-.12.11h0a67,67,0,0,0-5.71,4.74c-4.22,3.76-8.59,7.65-16,10.16-10,3.39-14.57,3.19-18.63,3a31.5,31.5,0,0,0-6.14.17,52.64,52.64,0,0,1-7.55.23c-6.61-.08-14.1-.18-14.9,4.46a3.35,3.35,0,0,0,.6,3c1.88,2,7.46,1.58,11.15,1.27.87-.07,1.69-.14,2.41-.18a51.25,51.25,0,0,0,5.43-.64c3.57-.54,7.27-1.1,11-.39l5.49,1a1,1,0,0,1,.73.61.94.94,0,0,1-.13.94c-.14.19-3.54,4.69-8.3,6.36-4.56,1.59-7.84,2.44-10.23,3.06-3.14.82-4.87,1.27-6.5,2.54-1,.75-4,3.4-2.36,6.34.94,1.73,4.16.29,8-1.63l1.24-.62c3.51-1.76,7.49-3.76,13.14-4.27l1.93-.17c6.69-.55,19.15-1.58,25.07-5.68a1,1,0,0,1,.75-.15c10.76,2.15,17.67,1.77,21.94,1.29,2.25-.25,6.66.87,12.25,2.28,6.59,1.66,14.79,3.73,20.82,3.73,4.65,0,8-.14,10.4-.24,3.52-.15,5.13-.22,6.26.35a29.34,29.34,0,0,1,2.89,2c5,3.7,16.79,12.36,23.78,13.56,8.81,1.51,16.87,3.06,24.63,4.72,8.11,1.74,14.19,1.77,15.5.09a2.93,2.93,0,0,0,.46-3c-.57-1.28-2.15-2.07-4.47-2.24a30.94,30.94,0,0,0-3.12,0,11.34,11.34,0,0,1-4.43-.52c-5.08-1.62-10.68-4.83-17.12-9.83h0l0-.05a.39.39,0,0,1-.1-.08l-.05-.08-.06-.08a.36.36,0,0,0,0-.09l0-.08a.38.38,0,0,1,0-.1s0-.06,0-.09v-.13s0,0,0-.06h0a1,1,0,0,1,.1-.37,1,1,0,0,1,.11-.17h0l0,0,.11-.12,0,0,.12-.09h0a.8.8,0,0,1,.34-.11h.19c.29,0,13.22.74,22.62-.78l3.22-.53c5.33-.89,5.54-.93,8.25-.09l1.26.38c2.91.86,5.93.31,6.82-.72a.9.9,0,0,0,.12-1.07C345.88,757.87,340.5,756.13,336.07,756.13Zm-20.5-20.93c.31-.81,1.21-2.69,2.65-2.69a1.55,1.55,0,0,1,.31,0c1.45.28,1.64,2.35,1.52,3.53-.07.79-.37,1.74-1.31,1.74h0a3.14,3.14,0,0,1-3.18-2A1,1,0,0,1,315.57,735.2ZM192.36,753.6a1,1,0,0,1-1,.8.55.55,0,0,1-.18,0c-2.88-.54-7.43-2.67-10.44-4.08l-.67-.32A32.34,32.34,0,0,0,173,748a1,1,0,0,1,.31-1.94,34.21,34.21,0,0,1,7.67,2.11l.67.31c2.74,1.29,7.34,3.44,10,3.94A1,1,0,0,1,192.36,753.6Zm20.76-39a27.59,27.59,0,0,0-7.22,3.1,1,1,0,0,1-.51.15,1,1,0,0,1-.84-.47,1,1,0,0,1,.33-1.35,29.61,29.61,0,0,1,7.72-3.33,1,1,0,0,1,.52,1.9Zm90.77,49.21a1,1,0,0,1-.77.36,1,1,0,0,1-.61-.21c-1-.83-2-1.62-2.83-2.32-1.34-1.11-2.4-2-3.16-2.53a1,1,0,1,1,1.14-1.59c.82.58,1.9,1.48,3.27,2.61.84.69,1.79,1.48,2.81,2.3A1,1,0,0,1,303.89,763.78Zm3.95-10.86a14.56,14.56,0,0,0-7.3,3.1,1,1,0,0,1-.64.24,1,1,0,0,1-.74-.34,1,1,0,0,1,.1-1.38,16.27,16.27,0,0,1,8.4-3.58,1,1,0,0,1,.18,2Z"/><path class="cls-8" d="M303.74,762.4c-1-.82-2-1.61-2.81-2.3-1.37-1.13-2.45-2-3.27-2.61a1,1,0,1,0-1.14,1.59c.76.55,1.82,1.42,3.16,2.53.84.7,1.8,1.49,2.83,2.32a1,1,0,0,0,.61.21,1,1,0,0,0,.62-1.74Z"/><path class="cls-8" d="M191.57,752.46c-2.63-.5-7.23-2.65-10-3.94l-.67-.31a34.21,34.21,0,0,0-7.67-2.11A1,1,0,0,0,173,748,32.34,32.34,0,0,1,180.1,750l.67.32c3,1.41,7.56,3.54,10.44,4.08a.55.55,0,0,0,.18,0,1,1,0,0,0,.18-1.94Z"/><path class="cls-8" d="M307.66,751a16.27,16.27,0,0,0-8.4,3.58,1,1,0,0,0-.1,1.38,1,1,0,0,0,.74.34,1,1,0,0,0,.64-.24,14.56,14.56,0,0,1,7.3-3.1,1,1,0,0,0-.18-2Z"/><path class="cls-8" d="M318.72,737.81h0c.94,0,1.24-.95,1.31-1.74.12-1.18-.07-3.25-1.52-3.53a1.55,1.55,0,0,0-.31,0c-1.44,0-2.34,1.88-2.65,2.69a1,1,0,0,0,0,.65A3.14,3.14,0,0,0,318.72,737.81Zm0-1Z"/><path class="cls-8" d="M212.6,712.67a29.61,29.61,0,0,0-7.72,3.33,1,1,0,0,0-.33,1.35,1,1,0,0,0,.84.47,1,1,0,0,0,.51-.15,27.59,27.59,0,0,1,7.22-3.1,1,1,0,0,0-.52-1.9Z"/><path class="cls-8" d="M336.07,754.16c-8.43,0-17.7-.67-22.36-1.86l.78-.11a30.51,30.51,0,0,1,3.32-.22c2.58-.08,5.25-.17,7.14-1.85,2.14-1.91,5-6.8,5.06-9.38a2.21,2.21,0,0,0-.58-1.72c-1.76-1.77-2-4.2-2.25-6.77a23.17,23.17,0,0,0-.63-4.06c-1-3.35-7.12-8.75-11.86-11.28,0-2.4-.05-10.15-1.8-11.93a1.59,1.59,0,0,0-1.15-.52c-.76,0-2.17,0-7.56,10.66a20.21,20.21,0,0,0-10,3.64,36.37,36.37,0,0,1-18.35,6.11c-3.26.23-17.92-3.78-28.88-7.53a84.8,84.8,0,0,0-10.75-3.53c-7.88-2-14.72-2.64-20.35-1.81-.86-4.44-4.08-14.84-15.64-16.94a58.22,58.22,0,0,0-19.35-.4,40.86,40.86,0,0,1-9,.39,33.79,33.79,0,0,1-4.73-.93c-3.79-.94-7.71-1.91-9.34,1.77A3.72,3.72,0,0,0,158,699c1.13,2.44,4.21,4.82,7.5,5.78,4.24,1.25,9.22,1.33,19.73.3,5.25-.51,9.63.59,12.66,3.2a13.62,13.62,0,0,1,4.51,9.37c-1.93,1.43-3.71,3-5.43,4.53-4.07,3.64-8.29,7.39-15.29,9.77-9.64,3.27-13.84,3.09-17.91,2.91a32.29,32.29,0,0,0-6.5.19,51.15,51.15,0,0,1-7.25.21c-7.4-.09-15.78-.21-16.86,6.09a5.18,5.18,0,0,0,1.09,4.64c2.53,2.76,8.2,2.29,12.76,1.91.85-.07,1.65-.14,2.34-.18a56.45,56.45,0,0,0,5.63-.66c3.4-.52,6.93-1.05,10.35-.4l3.83.73a16.87,16.87,0,0,1-6.32,4.44c-4.48,1.57-7.71,2.41-10.07,3-3.28.85-5.26,1.36-7.21,2.88-2.62,2-4.74,5.42-2.88,8.83s6.71,1.12,10.56-.82l1.23-.62c3.52-1.76,7.16-3.59,12.44-4.07l1.91-.16c6.75-.56,19.21-1.59,25.68-5.79,10.79,2.12,17.79,1.72,22.14,1.24,1.89-.21,6.58,1,11.55,2.23,6.69,1.69,15,3.79,21.3,3.79,4.69,0,8-.14,10.48-.24,2.88-.12,4.62-.2,5.3.14.25.13,1.4,1,2.61,1.86,5.57,4.11,17.16,12.65,24.61,13.93,8.78,1.5,16.81,3,24.55,4.7a55.43,55.43,0,0,0,10.73,1.36c3,0,5.58-.5,6.73-2a4.9,4.9,0,0,0,.71-5c-.51-1.14-2-3.1-6.13-3.39a29.88,29.88,0,0,0-3.32,0,9.63,9.63,0,0,1-3.78-.43c-4.19-1.33-8.8-3.84-14-7.63,1.27,0,2.85.07,4.62.07a101.27,101.27,0,0,0,15.27-1l3.23-.54c5.08-.85,5.08-.85,7.35-.14l1.28.39c3.51,1,7.32.46,8.87-1.32A2.83,2.83,0,0,0,349,760C347.46,756.61,342,754.16,336.07,754.16Zm11,7.69c-.89,1-3.91,1.58-6.82.72l-1.26-.38c-2.71-.84-2.92-.8-8.25.09l-3.22.53c-9.4,1.52-22.33.8-22.62.78h-.19a.8.8,0,0,0-.34.11h0l-.12.09,0,0-.11.12,0,0h0a1,1,0,0,0-.11.17,1,1,0,0,0-.1.37h0s0,0,0,.06v.13s0,.06,0,.09a.38.38,0,0,0,0,.1l0,.08a.36.36,0,0,1,0,.09l.06.08.05.08a.39.39,0,0,0,.1.08l0,.05h0c6.44,5,12,8.21,17.12,9.83a11.34,11.34,0,0,0,4.43.52,30.94,30.94,0,0,1,3.12,0c2.32.17,3.9,1,4.47,2.24a2.93,2.93,0,0,1-.46,3c-1.31,1.68-7.39,1.65-15.5-.09-7.76-1.66-15.82-3.21-24.63-4.72-7-1.2-18.75-9.86-23.78-13.56a29.34,29.34,0,0,0-2.89-2c-1.13-.57-2.74-.5-6.26-.35-2.43.1-5.75.24-10.4.24-6,0-14.23-2.07-20.82-3.73-5.59-1.41-10-2.53-12.25-2.28-4.27.48-11.18.86-21.94-1.29a1,1,0,0,0-.75.15c-5.92,4.1-18.38,5.13-25.07,5.68l-1.93.17c-5.65.51-9.63,2.51-13.14,4.27l-1.24.62c-3.79,1.92-7,3.36-8,1.63-1.6-2.94,1.4-5.59,2.36-6.34,1.63-1.27,3.36-1.72,6.5-2.54,2.39-.62,5.67-1.47,10.23-3.06,4.76-1.67,8.16-6.17,8.3-6.36a.94.94,0,0,0,.13-.94,1,1,0,0,0-.73-.61l-5.49-1c-3.75-.71-7.45-.15-11,.39a51.25,51.25,0,0,1-5.43.64c-.72,0-1.54.11-2.41.18-3.69.31-9.27.78-11.15-1.27a3.35,3.35,0,0,1-.6-3c.8-4.64,8.29-4.54,14.9-4.46a52.64,52.64,0,0,0,7.55-.23,31.5,31.5,0,0,1,6.14-.17c4.06.18,8.65.38,18.63-3,7.38-2.51,11.75-6.4,16-10.16a67,67,0,0,1,5.71-4.74h0l.12-.11s0,0,0,0a.76.76,0,0,0,.11-.14h0a1.09,1.09,0,0,0,.13-.34v0a.57.57,0,0,0,0-.13v-.08a15.73,15.73,0,0,0-5.23-11.27c-3.45-3-8.34-4.23-14.13-3.66-10.23,1-15,.94-19-.23a10.5,10.5,0,0,1-6.27-4.72,1.94,1.94,0,0,1-.17-1.53c.92-2.07,3.17-1.62,7.08-.66a34.41,34.41,0,0,0,5,1,42.84,42.84,0,0,0,9.4-.39,56.28,56.28,0,0,1,18.77.38c3.64.66,12.31,3.57,14.21,16.28h0v0a.24.24,0,0,0,0,.08l0,.1,0,.08a.41.41,0,0,0,.05.09l0,.06.08.09a.08.08,0,0,0,0,0l.1.09,0,0,.12.07h0l.14.05h.4c13.23-2.41,30.82,5,31,5.07l.06,0c9.36,3.2,24.83,7.65,29.32,7.65l.37,0a38.25,38.25,0,0,0,19.32-6.44,18.3,18.3,0,0,1,9.57-3.34h0l.11,0h.08l.1,0,.08,0,.08,0,.08,0,.07-.07.06-.06.06-.08.05-.08,0,0c3.75-7.48,5.4-9.43,6-9.93.56,1.07,1.2,5.14,1.08,10.92a1,1,0,0,0,.61.93c4.67,2.34,10.59,7.72,11.33,10.31a21.85,21.85,0,0,1,.57,3.71c.27,2.79.55,5.68,2.79,7.94.41,1-2,6.16-4.38,8.28-1.36,1.2-3.46,1.27-5.89,1.35a30.66,30.66,0,0,0-3.54.24c-2.41.35-2.41.35-2.81.38l-1.34.14a1,1,0,0,0-.62,1.63c3.29,3.62,24.25,3.73,26.63,3.73,4.43,0,9.81,1.74,11.14,4.65A.9.9,0,0,1,347.09,761.85Z"/><path class="cls-4" d="M559.19,17.42s0,0,0,.06a.41.41,0,0,1,0,.11s0,.06,0,.09,0,.06,0,.1l0,.09,0,.08-.05.09,0,.08-.06.07-.06.07-.09.07,0,0c-13.4,8.64-11.7,25-11.68,25.13a1.07,1.07,0,0,1-.14.63c-5,8,3.9,18.54,9.65,24.09a1,1,0,0,1,.29.53c.44,2.53.66,2.54,6.4,2.86,2.08.12,4.94.28,8.62.65,8.77.89,10.31-.47,10.53-.75l0,0a3.83,3.83,0,0,1-.05-.6,1,1,0,0,1,.75-.95,1,1,0,0,1,1.1.5,1.94,1.94,0,0,1,.21.95.78.78,0,0,0,.19.24c1.18,1.07,5.43.67,9.54.29,1.77-.17,3.61-.34,5.43-.44,7.89-.39,10.23-3,10.92-4.52a18.67,18.67,0,0,1,1.23-2c2.88-4.3,9.62-14.37,8.5-27-1-11.63-6.69-15.74-12.09-18.21l0,0-.09-.05-.07-.05-.08-.07-.06-.07-.06-.07,0-.08,0-.08,0-.09s0-.06,0-.09a.29.29,0,0,1,0-.09s0-.07,0-.1v-.1s0-.06,0-.09a.3.3,0,0,0,0-.1,0,0,0,0,0,0,0,50.62,50.62,0,0,0,2.22-12.51c.06-2.34-.36-3.36-.78-3.54s-1.88.21-4.4,2.87c-1.86,2-5.37,5-8,7.19l-.12.08,0,0a1,1,0,0,1-.21.09h-.05l-.18,0H596l-.17,0h-.05a.85.85,0,0,1-.22-.09h0c-4.19-2.41-10.31-5.61-15.15-5.61a17.85,17.85,0,0,0-10.22,3.27l0,0-.09,0-.09,0-.09,0-.1,0h-.27l-.1,0-.08,0-.1,0-.07,0-.09-.06-.07,0-.08-.08,0,0-.35-.42c-2.85-3.45-7.16-8.66-8.84-7.69C558.67,2.7,557.9,7.08,559.19,17.42Zm-7.57,37.64a.74.74,0,0,1-.29,0,1,1,0,0,1-.94-.69,38.13,38.13,0,0,0-3-7,1,1,0,0,1,1.69-1,39.54,39.54,0,0,1,3.23,7.45A1,1,0,0,1,551.62,55.06Zm48.55,9.74a1,1,0,0,1-1.1.84c-11-1.45-14.09,2.45-14.12,2.49a1,1,0,0,1-.79.39H584c0,.08,0,.15,0,.21a1,1,0,0,1-.84,1.11h-.14a1,1,0,0,1-1-.85c-.29-2.15-2.53-2.86-4.36-3.08a39.86,39.86,0,0,1-8.47-2.56,1,1,0,0,1,.76-1.81A38,38,0,0,0,578,64c3.16.38,4.7,1.65,5.44,2.92.58-.71,4.39-4.7,15.9-3.18A1,1,0,0,1,600.17,64.8Zm5.38-40.45a1,1,0,0,1,.12-.65,19.53,19.53,0,0,0,1.3-3,1,1,0,0,1,1.26-.6,1,1,0,0,1,.59,1.25,23.86,23.86,0,0,1-1.28,3.06c.27,1.91,1.42,11.14-1.16,17.39a75.46,75.46,0,0,1-4,8.22,13.05,13.05,0,0,0-1.09,2.23c-.89,3.71-3.11,7.43-12.82,6.91a25.84,25.84,0,0,1-3.42.23c-5.74,0-9.66-2.09-12.65-3.69a28.63,28.63,0,0,0-2.66-1.33,1,1,0,0,1-.52-1.29,1,1,0,0,1,1.28-.52c.91.38,1.84.88,2.83,1.41,3.51,1.88,7.88,4.21,15,3.23h.19c8.73.49,10.2-2.53,10.89-5.39A12.73,12.73,0,0,1,600.7,49a72.84,72.84,0,0,0,3.87-8C607.18,34.68,605.57,24.45,605.55,24.35Zm-33,19.79a1,1,0,0,1,1.1-.85c.18,0,4.44.6,6.5,3a1,1,0,0,1-.1,1.38,1,1,0,0,1-1.38-.09c-1.3-1.48-4.25-2.16-5.28-2.29A1,1,0,0,1,572.59,44.14Zm13.55,4.94c.6-.81,2.13-1.1,3.26-1.1,1.59,0,2.54.52,2.54,1.39,0,2.08-2.38,3-2.48,3a.45.45,0,0,1-.2,0,.58.58,0,0,1-.19,0c-.65-.22-2.8-1-3.14-2.19A1.26,1.26,0,0,1,586.14,49.08ZM594,45.61a9.88,9.88,0,0,1,5-3.08,1,1,0,0,1,.45,1.91,8,8,0,0,0-3.91,2.41,1,1,0,0,1-1.38.14A1,1,0,0,1,594,45.61Zm10.68-24.85a1,1,0,0,1-.09,1.39,1,1,0,0,1-.65.24,1,1,0,0,1-.74-.33,21.72,21.72,0,0,0-8.7-5.6,1,1,0,1,1,.58-1.87A23.33,23.33,0,0,1,604.67,20.76ZM570.41,10.47a1,1,0,0,1,1.39.11,29.52,29.52,0,0,0,3.14,3.31c1.52-.39,6.37-1.23,17.54-.32l1.31-1.08A1,1,0,0,1,595,14c-1,.82-1.64,1.34-1.64,1.34a1,1,0,0,1-.69.21c-13.44-1.13-17.59.32-17.63.34a1,1,0,0,1-.34.06,1,1,0,0,1-.57-.18,25.26,25.26,0,0,1-3.87-3.92A1,1,0,0,1,570.41,10.47Zm-8.95,8.87a35.15,35.15,0,0,1,8.64-4.47,1,1,0,0,1,.7,1.83,33.9,33.9,0,0,0-8.11,4.17,1,1,0,0,1-.61.21,1,1,0,0,1-.62-1.74Zm-1.92.62c.26,1.77.47,2.93.47,2.94V23a.61.61,0,0,1,0,.22v.07c-2.33,12.5-.57,21.32,5.21,26.19a1,1,0,0,1-.63,1.74A.94.94,0,0,1,564,51c-6.34-5.34-8.32-14.72-5.91-27.87-.07-.39-.24-1.41-.45-2.83a1,1,0,1,1,1.94-.29Z"/><path class="cls-8" d="M600.7,49a12.73,12.73,0,0,0-1.28,2.73c-.69,2.86-2.16,5.88-10.89,5.39h-.19c-7.09,1-11.46-1.35-15-3.23-1-.53-1.92-1-2.83-1.41a1,1,0,0,0-1.28.52,1,1,0,0,0,.52,1.29,28.63,28.63,0,0,1,2.66,1.33c3,1.6,6.91,3.69,12.65,3.69a25.84,25.84,0,0,0,3.42-.23c9.71.52,11.93-3.2,12.82-6.91A13.05,13.05,0,0,1,602.42,50a75.46,75.46,0,0,0,4-8.22c2.58-6.25,1.43-15.48,1.16-17.39a23.86,23.86,0,0,0,1.28-3.06,1,1,0,0,0-.59-1.25,1,1,0,0,0-1.26.6,19.53,19.53,0,0,1-1.3,3,1,1,0,0,0-.12.65c0,.1,1.63,10.33-1,16.67A72.84,72.84,0,0,1,600.7,49Z"/><path class="cls-8" d="M558.43,19.13a1,1,0,0,0-.83,1.12c.21,1.42.38,2.44.45,2.83C555.64,36.23,557.62,45.61,564,51a.94.94,0,0,0,.63.24,1,1,0,0,0,.63-1.74c-5.78-4.87-7.54-13.69-5.21-26.19v-.07a.61.61,0,0,0,0-.22V22.9s-.21-1.17-.47-2.94A1,1,0,0,0,558.43,19.13Z"/><path class="cls-8" d="M574.17,15.77a1,1,0,0,0,.57.18,1,1,0,0,0,.34-.06s4.19-1.47,17.63-.34a1,1,0,0,0,.69-.21s.65-.52,1.64-1.34a1,1,0,0,0-1.25-1.51l-1.31,1.08c-11.17-.91-16-.07-17.54.32a29.52,29.52,0,0,1-3.14-3.31,1,1,0,0,0-1.5,1.27A25.26,25.26,0,0,0,574.17,15.77Z"/><path class="cls-8" d="M578.71,47.53a1,1,0,0,0,1.38.09,1,1,0,0,0,.1-1.38c-2.06-2.35-6.32-2.92-6.5-3a1,1,0,0,0-.26,2C574.46,45.37,577.41,46.05,578.71,47.53Z"/><path class="cls-8" d="M595.51,46.85a8,8,0,0,1,3.91-2.41,1,1,0,0,0-.45-1.91,9.88,9.88,0,0,0-5,3.08,1,1,0,0,0,.14,1.38,1,1,0,0,0,1.38-.14Z"/><path class="cls-8" d="M589.07,52.41a.58.58,0,0,0,.19,0,.45.45,0,0,0,.2,0c.1,0,2.48-.95,2.48-3,0-.87-1-1.39-2.54-1.39-1.13,0-2.66.29-3.26,1.1a1.26,1.26,0,0,0-.21,1.14C586.27,51.39,588.42,52.19,589.07,52.41Z"/><path class="cls-8" d="M557.17,17.06a27.43,27.43,0,0,0-11.26,16.7,32.5,32.5,0,0,0-.82,9.62c-5.29,9,3.79,20.08,9.91,26,.74,3.75,2.54,3.85,8.16,4.16,2.18.12,4.9.28,8.54.64a52.21,52.21,0,0,0,5.33.31c3.17,0,5.3-.44,6.44-1.32,1.9,1.51,5.88,1.13,10.9.66,1.75-.17,3.56-.34,5.33-.43,8.49-.42,11.55-3.32,12.62-5.67.13-.29.57-.94,1.07-1.7,3-4.47,10-15,8.82-28.22-1.07-12.13-7.07-16.84-12.45-19.46a52,52,0,0,0,2.06-12.21c.09-3-.57-4.82-2-5.41-1.64-.67-3.84.45-6.57,3.33-1.68,1.78-4.8,4.49-7.3,6.6-4.36-2.47-10.46-5.53-15.53-5.53a19.79,19.79,0,0,0-10.55,3.11c-4.15-5-8.06-9.66-11.13-7.88C557.91.87,555.39,2.33,557.17,17.06Zm2.56-15c1.68-1,6,4.24,8.84,7.69l.35.42,0,0,.08.08.07,0,.09.06.07,0,.1,0,.08,0,.1,0h.27l.1,0,.09,0,.09,0,.09,0,0,0a17.85,17.85,0,0,1,10.22-3.27c4.84,0,11,3.2,15.15,5.61h0a.85.85,0,0,0,.22.09h.05l.17,0h.07l.18,0h.05a1,1,0,0,0,.21-.09l0,0,.12-.08c2.61-2.19,6.12-5.22,8-7.19,2.52-2.66,4-3.05,4.4-2.87s.84,1.2.78,3.54a50.62,50.62,0,0,1-2.22,12.51,0,0,0,0,1,0,0,.3.3,0,0,1,0,.1s0,.06,0,.09v.1s0,.07,0,.1a.29.29,0,0,0,0,.09s0,.06,0,.09l0,.09,0,.08,0,.08.06.07.06.07.08.07.07.05.09.05,0,0c5.4,2.47,11.06,6.58,12.09,18.21,1.12,12.59-5.62,22.66-8.5,27a18.67,18.67,0,0,0-1.23,2c-.69,1.52-3,4.13-10.92,4.52-1.82.1-3.66.27-5.43.44-4.11.38-8.36.78-9.54-.29a.78.78,0,0,1-.19-.24,1.94,1.94,0,0,0-.21-.95,1,1,0,0,0-1.1-.5,1,1,0,0,0-.75.95,3.83,3.83,0,0,0,.05.6l0,0c-.22.28-1.76,1.64-10.53.75-3.68-.37-6.54-.53-8.62-.65-5.74-.32-6-.33-6.4-2.86a1,1,0,0,0-.29-.53c-5.75-5.55-14.65-16.06-9.65-24.09a1.07,1.07,0,0,0,.14-.63c0-.16-1.72-16.49,11.68-25.13l0,0,.09-.07.06-.07.06-.07,0-.08.05-.09,0-.08,0-.09s0-.07,0-.1,0-.06,0-.09a.41.41,0,0,0,0-.11s0,0,0-.06C557.9,7.08,558.67,2.7,559.73,2.08Z"/><path class="cls-8" d="M549,46.38a1,1,0,0,0-1.69,1,38.13,38.13,0,0,1,3,7,1,1,0,0,0,.94.69.74.74,0,0,0,.29,0,1,1,0,0,0,.64-1.23A39.54,39.54,0,0,0,549,46.38Z"/><path class="cls-8" d="M599.33,63.7c-11.51-1.52-15.32,2.47-15.9,3.18-.74-1.27-2.28-2.54-5.44-2.92a38,38,0,0,1-7.94-2.42,1,1,0,0,0-.76,1.81,39.86,39.86,0,0,0,8.47,2.56c1.83.22,4.07.93,4.36,3.08a1,1,0,0,0,1,.85h.14a1,1,0,0,0,.84-1.11c0-.06,0-.13,0-.21h.13a1,1,0,0,0,.79-.39s3.1-3.94,14.12-2.49a1,1,0,1,0,.26-1.94Z"/><path class="cls-8" d="M593.84,15.23a1,1,0,0,0,.65,1.23,21.72,21.72,0,0,1,8.7,5.6,1,1,0,0,0,.74.33,1,1,0,0,0,.65-.24,1,1,0,0,0,.09-1.39,23.33,23.33,0,0,0-9.6-6.17A1,1,0,0,0,593.84,15.23Z"/><path class="cls-8" d="M562.08,21.08a1,1,0,0,0,.61-.21,33.9,33.9,0,0,1,8.11-4.17,1,1,0,0,0-.7-1.83,35.15,35.15,0,0,0-8.64,4.47,1,1,0,0,0,.62,1.74Z"/><path class="cls-4" d="M587.68,628.15c-1,4.13-1.17,12.79-.27,16a13.93,13.93,0,0,0,3.16,5.07,1,1,0,0,1,.24.4,18.55,18.55,0,0,1,.72,3.95,7.56,7.56,0,0,0,.74,3.14c1.69,2.67,5.94,5.43,6,5.46a1,1,0,0,1,.45.83c0,.12,0,12.79,2.58,21.7.89,3.13,2.19,7.08,3.57,11.25,2.58,7.84,5.51,16.72,6.39,22.3a6.35,6.35,0,0,1-.57,4.42,5.3,5.3,0,0,0,.21,5.52,4.82,4.82,0,0,0,3.36,2c2,.4,4.09.12,5.1-.69,2.87-2.29,3.87-4.87,3.07-7.88-.22-.83-.47-1.68-.74-2.58a66.19,66.19,0,0,1-3-16.19c-.1-1.8,0-5.72,0-9.5s.12-8,0-9.29a1,1,0,0,1,.27-.78,1,1,0,0,1,.79-.29,102.07,102.07,0,0,0,11.11.26,1,1,0,0,1,1,.87,39.17,39.17,0,0,1-.54,10.49c-1.32,6.92-1.06,12,.72,14.35a3.74,3.74,0,0,0,2.76,1.49,4.49,4.49,0,0,0,3.07-1.52c1-1.21,1.42-3.11,1.19-5.51-.58-6.08,3.83-18.62,5-21.65a1,1,0,0,1,1.89.32c.09,2,.24,4,.38,5.71.27,3.63.49,6.5.12,7.89a8.55,8.55,0,0,1-1.41,3.17,5.54,5.54,0,0,0-1.19,3.87c.14,1.34,3.39,1.25,5.13,1.2l1,0c1.13,0,2.16-3.25,2.16-4.51,0-.85.67-3.49,1.86-8.09.69-2.63,1.39-5.35,1.82-7.3a73.91,73.91,0,0,0,1.55-18.32.81.81,0,0,1,0-.16,74.5,74.5,0,0,1,1.69-8.13c1.78-7.23,3.79-15.42,2-25.05-1.71-9-7.63-14.83-12.29-18.09h0l0,0-.11-.09,0-.07s-.05,0-.06-.08a.41.41,0,0,1,0-.09s0-.05,0-.08l0-.09a.29.29,0,0,1,0-.09.28.28,0,0,1,0-.09.38.38,0,0,1,0-.1s0-.07,0-.1a.28.28,0,0,1,0-.09.65.65,0,0,1,0-.13s0,0,0,0h0c8.19-19.45,8.14-38.69,3.37-46-1.45-2.24-3.29-3.4-5.49-3.45-4.35-.09-9.84,1.76-11.59,6.06-.55,1.36-.46,2.57.25,3.23,1.76,1.64,2.77,1,4.61-.14a9.61,9.61,0,0,1,4-1.68,3.78,3.78,0,0,1,3.31,1c2.08,2.15,1.58,6.92.65,13.43a78.21,78.21,0,0,1-7.29,23.65s0,0,0,.05l-.06.09-.06.07-.07.07-.07.06-.07.06-.09,0-.08,0-.09,0-.1,0h-.35c-5.48-1-12.35,1.43-12.42,1.46a1,1,0,0,1-1.19-.45c-1.23-2.24-3.23-4.73-4.11-4.73-1.14.1-5.29,6.26-6.09,14.55a1,1,0,0,1-1.07.88,119,119,0,0,0-16.06-.26,1,1,0,0,1-.84-.38c-3.94-5.11-11.11-12.19-13.39-11.67-.28.06-.47.49-.57.74-1.23,3.3.64,13,4,17.61A.94.94,0,0,1,587.68,628.15Zm61.45,45.73a1,1,0,0,1,.07,1.39,20.55,20.55,0,0,0-2.56,4.92,1,1,0,0,1-.92.63,1.12,1.12,0,0,1-.35-.06,1,1,0,0,1-.56-1.27,22.18,22.18,0,0,1,2.93-5.54A1,1,0,0,1,649.13,673.88Zm-8.49-65a1,1,0,0,1,1.25-.59,32.76,32.76,0,0,1,6.25,3,1,1,0,0,1-.55,1.8,1,1,0,0,1-.54-.16,30.23,30.23,0,0,0-5.83-2.76A1,1,0,0,1,640.64,608.83Zm-45.86,40.64a.94.94,0,0,1-.53.16,1,1,0,0,1-.82-.46,3.54,3.54,0,0,0-2.71-1.7,1,1,0,0,1,0-2,5.47,5.47,0,0,1,4.36,2.62A1,1,0,0,1,594.78,649.47Zm23.54,33a1,1,0,0,1-.72.31,1,1,0,0,1-.67-.26,54.53,54.53,0,0,1-9.61-12.82,1,1,0,1,1,1.73-.91,53.81,53.81,0,0,0,9.22,12.29A1,1,0,0,1,618.32,682.47Zm8.59-71.21a1,1,0,0,1,1.3.51,55,55,0,0,1,4.08,15.37,20.44,20.44,0,0,1,2.3,7.67,1,1,0,0,1-.91,1h-.07a1,1,0,0,1-1-.92,18.69,18.69,0,0,0-2.15-7,.93.93,0,0,1-.12-.4,52.66,52.66,0,0,0-4-15A1,1,0,0,1,626.91,611.26Zm-10.74,9.56a1,1,0,0,1,1.15-.77A36,36,0,0,1,628,624.36a1,1,0,0,1-.52,1.82A1,1,0,0,1,627,626a34.8,34.8,0,0,0-10-4.06A1,1,0,0,1,616.17,620.82Zm-9.41,26.86c.06-.15,1.61-3.72,7.39-4a1,1,0,0,1,1,.94,1,1,0,0,1-.93,1c-4.48.23-5.64,2.71-5.69,2.81a1,1,0,0,1-.9.59,1.09,1.09,0,0,1-.39-.08A1,1,0,0,1,606.76,647.68Zm8.68,13.13a25.8,25.8,0,0,1,4.69-2.54c4.94-2.28,10.55-4.87,12.34-13.55a1,1,0,0,1,1.92.39c-2,9.66-8.34,12.59-13.43,14.94a24.83,24.83,0,0,0-4.34,2.33c-2.87,2.15-7.3,2.62-10.61,2.62a32.66,32.66,0,0,1-4.44-.28,1,1,0,1,1,.28-1.94C601.94,662.79,611.12,664.05,615.44,660.81Zm-18.58-6.56a5.08,5.08,0,0,1,1.79-.3c1.51,0,2.44.57,2.47,1.51a3,3,0,0,1-1.7,2.42c0,.14.08.33.13.53a7.48,7.48,0,0,0,1.71.59,1,1,0,0,1-.41,1.92,9.26,9.26,0,0,1-1.82-.59l-.27.36a1,1,0,0,1-.78.38,1,1,0,0,1-.6-.21,1,1,0,0,1-.17-1.37l.44-.6c-.11-.42-.19-.77-.2-.79a.19.19,0,0,0,0-.08,3.21,3.21,0,0,1-1.78-1.86A1.63,1.63,0,0,1,596.86,654.25Zm-8.94-29.56a16.06,16.06,0,0,1,5.94-4.22,1,1,0,0,1,.79,1.8,14.18,14.18,0,0,0-5.18,3.63,1,1,0,0,1-.78.38,1,1,0,0,1-.6-.21A1,1,0,0,1,587.92,624.69Z"/><path class="cls-8" d="M600.74,663.61a1,1,0,0,0,.83,1.11A32.66,32.66,0,0,0,606,665c3.31,0,7.74-.47,10.61-2.62a24.83,24.83,0,0,1,4.34-2.33c5.09-2.35,11.44-5.28,13.43-14.94a1,1,0,0,0-1.92-.39c-1.79,8.68-7.4,11.27-12.34,13.55a25.8,25.8,0,0,0-4.69,2.54c-4.32,3.24-13.5,2-13.59,2A1,1,0,0,0,600.74,663.61Z"/><path class="cls-8" d="M590.72,645.5a1,1,0,0,0,0,2,3.54,3.54,0,0,1,2.71,1.7,1,1,0,0,0,.82.46.94.94,0,0,0,.53-.16,1,1,0,0,0,.3-1.35A5.47,5.47,0,0,0,590.72,645.5Z"/><path class="cls-8" d="M607.27,649a1.09,1.09,0,0,0,.39.08,1,1,0,0,0,.9-.59c.05-.1,1.21-2.58,5.69-2.81a1,1,0,0,0,.93-1,1,1,0,0,0-1-.94c-5.78.29-7.33,3.86-7.39,4A1,1,0,0,0,607.27,649Z"/><path class="cls-8" d="M597.44,658a.19.19,0,0,1,0,.08s.09.37.2.79l-.44.6a1,1,0,0,0,.17,1.37,1,1,0,0,0,.6.21,1,1,0,0,0,.78-.38l.27-.36a9.26,9.26,0,0,0,1.82.59,1,1,0,0,0,.41-1.92,7.48,7.48,0,0,1-1.71-.59c0-.2-.1-.39-.13-.53a3,3,0,0,0,1.7-2.42c0-.94-1-1.51-2.47-1.51a5.08,5.08,0,0,0-1.79.3,1.63,1.63,0,0,0-1.2,1.91A3.21,3.21,0,0,0,597.44,658Z"/><path class="cls-8" d="M609.05,668.79a1,1,0,1,0-1.73.91,54.53,54.53,0,0,0,9.61,12.82,1,1,0,0,0,.67.26,1,1,0,0,0,.72-.31,1,1,0,0,0-.05-1.39A53.81,53.81,0,0,1,609.05,668.79Z"/><path class="cls-8" d="M644.81,679.49a1,1,0,0,0,.56,1.27,1.12,1.12,0,0,0,.35.06,1,1,0,0,0,.92-.63,20.55,20.55,0,0,1,2.56-4.92,1,1,0,1,0-1.46-1.32A22.18,22.18,0,0,0,644.81,679.49Z"/><path class="cls-8" d="M585.53,644.66A15.7,15.7,0,0,0,589,650.4a17.45,17.45,0,0,1,.58,3.35,9,9,0,0,0,1,4c1.6,2.5,4.92,4.92,6.13,5.75,0,2.54.3,13.48,2.65,21.72.91,3.17,2.21,7.13,3.59,11.33,2.57,7.79,5.48,16.63,6.33,22a.36.36,0,0,0,0,.11,4.48,4.48,0,0,1-.47,3.2,7.22,7.22,0,0,0,.29,7.21,6.59,6.59,0,0,0,4.71,2.94,11.09,11.09,0,0,0,2.2.22,7.34,7.34,0,0,0,4.51-1.3c3.49-2.79,4.74-6.12,3.73-9.91-.22-.86-.48-1.72-.74-2.63a62.81,62.81,0,0,1-2.89-15.75c-.1-1.74,0-5.61,0-9.36,0-3.32.1-6.49,0-8.36,1.87.13,5.76.34,9.31.23a38.34,38.34,0,0,1-.58,9c-1,5.29-1.64,12.35,1.08,15.91a5.69,5.69,0,0,0,4.25,2.26H635a6.38,6.38,0,0,0,4.49-2.23c1.37-1.63,1.92-4,1.63-7-.36-3.83,1.59-11.08,3.32-16.32,0,.36.05.7.08,1,.24,3.2.47,6.22.18,7.25a.44.44,0,0,0,0,.1,6.77,6.77,0,0,1-1.15,2.51,7.42,7.42,0,0,0-1.48,5.09c.32,3.18,4.58,3.06,7.13,3l.91,0c3,0,4.12-5.15,4.12-6.47,0-.64,1-4.5,1.8-7.6.69-2.65,1.4-5.38,1.84-7.36a76.33,76.33,0,0,0,1.59-18.74A73.78,73.78,0,0,1,661,657.8c1.73-7.06,3.89-15.84,2-25.88-1.76-9.29-7.61-15.34-12.47-18.89a87.09,87.09,0,0,0,6.37-26.93c.54-8.78-.68-16-3.45-20.23a8.61,8.61,0,0,0-7.09-4.34c-7.19-.17-11.94,3.54-13.45,7.28-.88,2.15-.6,4.17.73,5.41,2.86,2.66,5.14,1.23,7,.09a7.81,7.81,0,0,1,3.21-1.4,1.85,1.85,0,0,1,1.68.44c1.57,1.62.73,7.49.12,11.8a76.05,76.05,0,0,1-6.8,22.39c-4.74-.65-10,.78-11.92,1.4-1.05-1.76-3.29-5-5.42-5-3,0-6.95,7.86-7.93,15.36a120,120,0,0,0-14.9-.22,76.32,76.32,0,0,0-6.68-7.29c-3.8-3.58-6.54-5.11-8.39-4.68a2.8,2.8,0,0,0-2,2c-1.52,4.08.6,14,4,19.07C584.66,632.7,584.56,641.29,585.53,644.66Zm-2-34.93c.1-.25.29-.68.57-.74,2.28-.52,9.45,6.56,13.39,11.67a1,1,0,0,0,.84.38,119,119,0,0,1,16.06.26,1,1,0,0,0,1.07-.88c.8-8.29,4.95-14.45,6.09-14.55.88,0,2.88,2.49,4.11,4.73a1,1,0,0,0,1.19.45c.07,0,6.94-2.49,12.42-1.46h.35l.1,0,.09,0,.08,0,.09,0,.07-.06.07-.06.07-.07.06-.07.06-.09s0,0,0-.05a78.21,78.21,0,0,0,7.29-23.65c.93-6.51,1.43-11.28-.65-13.43a3.78,3.78,0,0,0-3.31-1,9.61,9.61,0,0,0-4,1.68c-1.84,1.15-2.85,1.78-4.61.14-.71-.66-.8-1.87-.25-3.23,1.75-4.3,7.24-6.15,11.59-6.06,2.2,0,4,1.21,5.49,3.45,4.77,7.36,4.82,26.6-3.37,46h0s0,0,0,0a.65.65,0,0,0,0,.13.28.28,0,0,0,0,.09s0,.07,0,.1a.38.38,0,0,0,0,.1.28.28,0,0,0,0,.09.29.29,0,0,0,0,.09l0,.09s0,0,0,.08a.41.41,0,0,0,0,.09s0,.05.06.08l0,.07.11.09,0,0h0c4.66,3.26,10.58,9,12.29,18.09,1.81,9.63-.2,17.82-2,25.05a74.5,74.5,0,0,0-1.69,8.13.81.81,0,0,0,0,.16,73.91,73.91,0,0,1-1.55,18.32c-.43,1.95-1.13,4.67-1.82,7.3-1.19,4.6-1.86,7.24-1.86,8.09,0,1.26-1,4.51-2.16,4.51l-1,0c-1.74,0-5,.14-5.13-1.2a5.54,5.54,0,0,1,1.19-3.87,8.55,8.55,0,0,0,1.41-3.17c.37-1.39.15-4.26-.12-7.89-.14-1.76-.29-3.76-.38-5.71a1,1,0,0,0-1.89-.32c-1.21,3-5.62,15.57-5,21.65.23,2.4-.18,4.3-1.19,5.51a4.49,4.49,0,0,1-3.07,1.52,3.74,3.74,0,0,1-2.76-1.49c-1.78-2.33-2-7.43-.72-14.35a39.17,39.17,0,0,0,.54-10.49,1,1,0,0,0-1-.87,102.07,102.07,0,0,1-11.11-.26,1,1,0,0,0-.79.29,1,1,0,0,0-.27.78c.13,1.3.07,5.36,0,9.29s-.12,7.7,0,9.5a66.19,66.19,0,0,0,3,16.19c.27.9.52,1.75.74,2.58.8,3-.2,5.59-3.07,7.88-1,.81-3.1,1.09-5.1.69a4.82,4.82,0,0,1-3.36-2,5.3,5.3,0,0,1-.21-5.52,6.35,6.35,0,0,0,.57-4.42c-.88-5.58-3.81-14.46-6.39-22.3-1.38-4.17-2.68-8.12-3.57-11.25-2.55-8.91-2.58-21.58-2.58-21.7a1,1,0,0,0-.45-.83s-4.29-2.79-6-5.46a7.56,7.56,0,0,1-.74-3.14,18.55,18.55,0,0,0-.72-3.95,1,1,0,0,0-.24-.4,13.93,13.93,0,0,1-3.16-5.07c-.9-3.18-.76-11.84.27-16a.94.94,0,0,0-.15-.81C584.15,622.69,582.28,613,583.51,609.73Z"/><path class="cls-8" d="M641.22,610.09a30.23,30.23,0,0,1,5.83,2.76,1,1,0,0,0,.54.16,1,1,0,0,0,.55-1.8,32.76,32.76,0,0,0-6.25-3,1,1,0,0,0-.67,1.85Z"/><path class="cls-8" d="M588.09,626.07a1,1,0,0,0,.6.21,1,1,0,0,0,.78-.38,14.18,14.18,0,0,1,5.18-3.63,1,1,0,0,0-.79-1.8,16.06,16.06,0,0,0-5.94,4.22A1,1,0,0,0,588.09,626.07Z"/><path class="cls-8" d="M630.36,627.51a.93.93,0,0,0,.12.4,18.69,18.69,0,0,1,2.15,7,1,1,0,0,0,1,.92h.07a1,1,0,0,0,.91-1,20.44,20.44,0,0,0-2.3-7.67,55,55,0,0,0-4.08-15.37,1,1,0,1,0-1.8.78A52.66,52.66,0,0,1,630.36,627.51Z"/><path class="cls-8" d="M616.94,622A34.8,34.8,0,0,1,627,626a1,1,0,0,0,.51.15,1,1,0,0,0,.52-1.82,36,36,0,0,0-10.66-4.31,1,1,0,1,0-.38,1.92Z"/><path class="cls-4" d="M463.62,531.72a1,1,0,0,1-.6-.68c-.83-3.34-6.48-20.27-35.93-26.16-8.15-1.45-26.61,2.49-42,9a.87.87,0,0,1-.48.07,90.53,90.53,0,0,0-11.07-.4l-2.56,0a50.9,50.9,0,0,0-11.9,2.4h0l-.09,0-.09,0h0a1,1,0,0,1-.93-.46l0,0,0-.07s0-.07,0-.11h0s0-.07,0-.11,0,0,0-.07h0c-.51-4.7-1.51-8-2.06-8.66-.81.09-2.94,2.76-4.11,4.22-.68.85-1.39,1.73-2.09,2.54-2.74,3.13-5.15,5.52-5.17,5.54a.1.1,0,0,1-.05,0l-.08.07-.08,0a.26.26,0,0,1-.09.05l-.08,0-.1,0h-.22a20.53,20.53,0,0,0-4.62.55l-1.21.32c-3.58.93-8.48,2.19-13.06,6.4l-.05,0-.05,0-.11.06-.05,0-.12,0-.06,0-.12,0H324a50.79,50.79,0,0,1-8.08-1.89c-5.2-1.83-6.7-1.58-7-1.47,0,1.74,2.93,10.56,9.89,13.35l.06,0,.1.06a.18.18,0,0,1,.07,0l.08.06.07.07a.35.35,0,0,1,.05.08,82426491397.24,82426491397.24,0,0,0,.1.16l0,.09,0,.09a.28.28,0,0,1,0,.09.38.38,0,0,1,0,.1.4.4,0,0,1,0,.11.17.17,0,0,1,0,.07c-.72,4.76-.68,9,.13,11.32a11.7,11.7,0,0,0,4.64,6.33,1,1,0,0,1,.49,1.06,1,1,0,0,1-.87.78c-.14,0-3.51.38-3.82,3.63a2.11,2.11,0,0,0,.67,1.87c1.44,1.33,5.12,1.72,9.37,1l5.69-1a1,1,0,0,1,.75.18c.14.09,3.5,2.47,9.24,1.39,4.71-.88,6.13-3.33,6.19-3.43a1,1,0,0,1,.86-.51c.06,0,6,0,14.78.59,10.53.7,18.38-.56,20.48-3.3a1,1,0,0,1,.86-.38,77.83,77.83,0,0,1,10.51,1.94,31.11,31.11,0,0,0,6.47,1.15,1,1,0,0,1,.3,1.94c-6.57,1.54-13.08,3.45-20.56,9.77a4.33,4.33,0,0,0-1.27,3.44,5.88,5.88,0,0,0,2.18,4.08c1.59,1.19,4.07,1.75,10.38-3.13,4.11-3.18,10.63-4.39,15.86-5.35a39.2,39.2,0,0,0,6.93-1.65,1,1,0,0,1,1,1.64c-.06.06-6.3,5.71-3.23,10.41a2.33,2.33,0,0,0,1.67.62c1.48,0,4.24-1.11,9-6.16,6.65-7,11-7.69,17.58-8.71l1.43-.22c8-1.27,23.33-7.5,23.69-22C471,539.92,468.54,533.61,463.62,531.72Zm-140.74-3.45c-.52.59-1,1.23-1.49,1.88a21.67,21.67,0,0,0-1.63,5.38,1,1,0,0,1-1,.79l-.2,0a1,1,0,0,1-.77-1.15,23.16,23.16,0,0,1,1.87-6l.06-.09c.52-.72,1.07-1.41,1.64-2.07a1,1,0,0,1,1.48,1.29Zm10.56,34.19a1,1,0,0,1-1.38-.14c-3.85-4.71-6-4.92-6.06-4.92h0a1,1,0,1,1-.09-2c.49,0,3.17.14,7.67,5.64A1,1,0,0,1,333.44,562.46Zm.83-7.52a1,1,0,0,1-1,.78l-.2,0a7.25,7.25,0,0,0-2.56,0,1,1,0,1,1-.36-1.93,9.2,9.2,0,0,1,3.32,0A1,1,0,0,1,334.27,554.94Zm9.54,5.13a.57.57,0,0,1-.41.26,5.64,5.64,0,0,1-1,.08c-1.34,0-2.22-.36-2.6-1.08a1.31,1.31,0,0,1,.12-1.38,4.9,4.9,0,0,1,3.42-2.12,1.26,1.26,0,0,1,1.1.55C345.26,557.74,344,559.84,343.81,560.07Zm8-12.72a5.51,5.51,0,0,0-3.67,2.52,1,1,0,0,1-.88.55,1.08,1.08,0,0,1-.43-.1,1,1,0,0,1-.46-1.3,7.5,7.5,0,0,1,5-3.58,1,1,0,0,1,1.19.73A1,1,0,0,1,351.79,547.35Zm-4.88-27.54a1,1,0,0,1,.52-1.89,33.27,33.27,0,0,1,8.72,4.05,1,1,0,0,1,.28,1.36,1,1,0,0,1-.82.44,1,1,0,0,1-.54-.17A31.55,31.55,0,0,0,346.91,519.81ZM360,553.05c-.35.45-.68.88-1,1.27a14.35,14.35,0,0,0-2.18,3.67,1,1,0,0,1-1,.87,1,1,0,0,1-1-1c0-.91,1.38-3,2.53-4.69.3-.42.64-.87,1-1.34,2.5-3.26,6.29-8.2,4.52-17.73a17.77,17.77,0,0,0-5-8.87l0,0-.08-.08-.05-.07a.22.22,0,0,1-.05-.08l0-.08,0-.1a.24.24,0,0,0,0-.08s0-.07,0-.11a.19.19,0,0,1,0-.08v-.1s0-.06,0-.09v-.05a25.14,25.14,0,0,0,.34-6.8,1,1,0,0,1,2-.11,30.44,30.44,0,0,1-.27,6.8,19.36,19.36,0,0,1,5.19,9.57C366.81,544.15,362.54,549.72,360,553.05Zm50.88.8c.06.78.09,1.34.08,1.72a7,7,0,0,1-2.78,5,1,1,0,0,1-.56.18A1,1,0,0,1,407,559a5.11,5.11,0,0,0,1.94-3.55c0-.26,0-.83-.08-1.49-.38-5.58-1.53-22.57,15.37-26.1a1,1,0,0,1,1.17.76,1,1,0,0,1-.76,1.16C409.44,533,410.47,548.14,410.86,553.85Zm27.46,6.92c-11.07,2.87-15.79,8.53-15.83,8.58a1,1,0,0,1-.76.36,1,1,0,0,1-.62-.22,1,1,0,0,1-.14-1.38c.2-.25,5.17-6.21,16.86-9.24,10.92-2.84,18-8,18-13.29a1,1,0,0,1,2,0C457.76,551.84,450.31,557.65,438.32,560.77Z"/><path class="cls-8" d="M359.69,524.19a30.44,30.44,0,0,0,.27-6.8,1,1,0,0,0-2,.11,25.14,25.14,0,0,1-.34,6.8v.05s0,.06,0,.09v.1a.19.19,0,0,0,0,.08s0,.08,0,.11a.24.24,0,0,1,0,.08l0,.1,0,.08a.22.22,0,0,0,.05.08l.05.07.08.08,0,0a17.77,17.77,0,0,1,5,8.87c1.77,9.53-2,14.47-4.52,17.73-.37.47-.71.92-1,1.34-1.15,1.64-2.53,3.78-2.53,4.69a1,1,0,0,0,1,1,1,1,0,0,0,1-.87,14.35,14.35,0,0,1,2.18-3.67c.27-.39.6-.82,1-1.27,2.56-3.33,6.83-8.9,4.9-19.29A19.36,19.36,0,0,0,359.69,524.19Z"/><path class="cls-8" d="M351.32,545.44a7.5,7.5,0,0,0-5,3.58,1,1,0,0,0,.46,1.3,1.08,1.08,0,0,0,.43.1,1,1,0,0,0,.88-.55,5.51,5.51,0,0,1,3.67-2.52,1,1,0,0,0,.72-1.18A1,1,0,0,0,351.32,545.44Z"/><path class="cls-8" d="M333.51,553.78a9.2,9.2,0,0,0-3.32,0,1,1,0,1,0,.36,1.93,7.25,7.25,0,0,1,2.56,0l.2,0a1,1,0,0,0,1-.78A1,1,0,0,0,333.51,553.78Z"/><path class="cls-8" d="M343.3,555.83a4.9,4.9,0,0,0-3.42,2.12,1.31,1.31,0,0,0-.12,1.38c.38.72,1.26,1.08,2.6,1.08a5.64,5.64,0,0,0,1-.08.57.57,0,0,0,.41-.26c.15-.23,1.45-2.33.59-3.69A1.26,1.26,0,0,0,343.3,555.83Z"/><path class="cls-8" d="M325.91,555.44a1,1,0,1,0,.09,2h0s2.21.21,6.06,4.92a1,1,0,0,0,1.38.14,1,1,0,0,0,.14-1.38C329.08,555.58,326.4,555.42,325.91,555.44Z"/><path class="cls-8" d="M464.8,530.08c-1.26-4.45-7.92-21.24-37.34-27.12-8.6-1.53-27,2.33-42.9,9a92.72,92.72,0,0,0-11-.39H371a50.57,50.57,0,0,0-11.36,2.16,39.39,39.39,0,0,0-1.06-5.47c-.84-3-1.62-3.58-2.28-3.73-1.92-.42-3.79,1.93-6.17,4.9-.67.84-1.36,1.7-2,2.48-2.17,2.48-4.12,4.48-4.81,5.17a21.71,21.71,0,0,0-4.72.61l-1.19.31c-3.47.9-8.68,2.26-13.52,6.54a47.09,47.09,0,0,1-7.26-1.73c-6.9-2.43-8.26-1.58-8.78-1.26a1.78,1.78,0,0,0-.83,1.33c-.22,2,2.73,11.6,10.39,15.17-.38,2.77-.87,8.09.32,11.51a14.92,14.92,0,0,0,3.87,6.14,5.71,5.71,0,0,0-3.53,4.83,4.07,4.07,0,0,0,1.29,3.5c1.93,1.79,6.05,2.34,11,1.48l5.31-.91a14.86,14.86,0,0,0,10.4,1.5c4.38-.82,6.44-2.92,7.2-3.9,1.61,0,6.91.1,14.13.58,5.28.35,17.71.67,21.8-3.64a82.58,82.58,0,0,1,9.74,1.85l2.07.48a43.34,43.34,0,0,0-16.72,9l-.06,0a6.26,6.26,0,0,0-1.87,5,7.85,7.85,0,0,0,3,5.51c3.1,2.32,6.92,1.38,12.77-3.15,3.73-2.89,10-4,15-5,1.43-.27,2.76-.51,4-.78-1.86,2.55-3.77,6.59-1.16,10.43a.81.81,0,0,0,.12.14,4.23,4.23,0,0,0,3.08,1.26h.07c2.73,0,6.14-2.25,10.42-6.77,6.18-6.54,9.83-7.1,16.45-8.12l1.43-.22a38.83,38.83,0,0,0,15.32-6.2c6.39-4.5,9.86-10.62,10-17.69a18.24,18.24,0,0,0-2-9A12.75,12.75,0,0,0,464.8,530.08Zm6,14.82c-.36,14.51-15.66,20.74-23.69,22l-1.43.22c-6.58,1-10.93,1.68-17.58,8.71-4.78,5-7.54,6.14-9,6.16a2.33,2.33,0,0,1-1.67-.62c-3.07-4.7,3.17-10.35,3.23-10.41a1,1,0,0,0-1-1.64,39.2,39.2,0,0,1-6.93,1.65c-5.23,1-11.75,2.17-15.86,5.35-6.31,4.88-8.79,4.32-10.38,3.13a5.88,5.88,0,0,1-2.18-4.08,4.33,4.33,0,0,1,1.27-3.44c7.48-6.32,14-8.23,20.56-9.77a1,1,0,0,0-.3-1.94,31.11,31.11,0,0,1-6.47-1.15,77.83,77.83,0,0,0-10.51-1.94,1,1,0,0,0-.86.38c-2.1,2.74-9.95,4-20.48,3.3-8.76-.58-14.72-.59-14.78-.59a1,1,0,0,0-.86.51c-.06.1-1.48,2.55-6.19,3.43-5.74,1.08-9.1-1.3-9.24-1.39a1,1,0,0,0-.75-.18l-5.69,1c-4.25.73-7.93.34-9.37-1a2.11,2.11,0,0,1-.67-1.87c.31-3.25,3.68-3.62,3.82-3.63a1,1,0,0,0,.87-.78,1,1,0,0,0-.49-1.06,11.7,11.7,0,0,1-4.64-6.33c-.81-2.33-.85-6.56-.13-11.32a.17.17,0,0,0,0-.07.4.4,0,0,0,0-.11.38.38,0,0,0,0-.1.28.28,0,0,0,0-.09l0-.09,0-.09a82426491397.24,82426491397.24,0,0,1-.1-.16.35.35,0,0,0-.05-.08l-.07-.07-.08-.06a.18.18,0,0,0-.07,0l-.1-.06-.06,0c-7-2.79-9.93-11.61-9.89-13.35.31-.11,1.81-.36,7,1.47a50.79,50.79,0,0,0,8.08,1.89h.24l.12,0,.06,0,.12,0,.05,0,.11-.06.05,0,.05,0c4.58-4.21,9.48-5.47,13.06-6.4l1.21-.32a20.53,20.53,0,0,1,4.62-.55h.22l.1,0,.08,0a.26.26,0,0,0,.09-.05l.08,0,.08-.07a.1.1,0,0,0,.05,0s2.43-2.41,5.17-5.54c.7-.81,1.41-1.69,2.09-2.54,1.17-1.46,3.3-4.13,4.11-4.22.55.66,1.55,4,2.06,8.66h0s0,0,0,.07,0,.08,0,.11h0s0,.07,0,.11l0,.07,0,0a1,1,0,0,0,.93.46h0l.09,0,.09,0h0a50.9,50.9,0,0,1,11.9-2.4l2.56,0a90.53,90.53,0,0,1,11.07.4.87.87,0,0,0,.48-.07c15.39-6.48,33.85-10.42,42-9,29.45,5.89,35.1,22.82,35.93,26.16a1,1,0,0,0,.6.68C468.54,533.61,471,539.92,470.84,544.9Z"/><path class="cls-8" d="M321.4,527c-.57.66-1.12,1.35-1.64,2.07l-.06.09a23.16,23.16,0,0,0-1.87,6,1,1,0,0,0,.77,1.15l.2,0a1,1,0,0,0,1-.79,21.67,21.67,0,0,1,1.63-5.38c.47-.65,1-1.29,1.49-1.88A1,1,0,0,0,321.4,527Z"/><path class="cls-8" d="M425.44,528.64a1,1,0,0,0-1.17-.76c-16.9,3.53-15.75,20.52-15.37,26.1.05.66.09,1.23.08,1.49A5.11,5.11,0,0,1,407,559a1,1,0,0,0,.56,1.78,1,1,0,0,0,.56-.18,7,7,0,0,0,2.78-5c0-.38,0-.94-.08-1.72-.39-5.71-1.42-20.87,13.82-24.05A1,1,0,0,0,425.44,528.64Z"/><path class="cls-8" d="M456.78,544.6a1,1,0,0,0-1,1c0,5.24-7.05,10.45-18,13.29-11.69,3-16.66,9-16.86,9.24a1,1,0,0,0,.14,1.38,1,1,0,0,0,.62.22,1,1,0,0,0,.76-.36c0-.05,4.76-5.71,15.83-8.58,12-3.12,19.44-8.93,19.44-15.19A1,1,0,0,0,456.78,544.6Z"/><path class="cls-8" d="M355.61,523.77a1,1,0,0,0,.82-.44,1,1,0,0,0-.28-1.36,33.27,33.27,0,0,0-8.72-4.05,1,1,0,0,0-.52,1.89,31.55,31.55,0,0,1,8.16,3.79A1,1,0,0,0,355.61,523.77Z"/><path class="cls-4" d="M99.45,446a1.1,1.1,0,0,1,0,.25s0,3,2.68,8.65c2.64,5.5,2.29,9.9,1.92,14.57,0,.68-.11,1.37-.15,2.08a22.51,22.51,0,0,0,1.81,11.52,30.44,30.44,0,0,1,2.32,9.23c.42,4.5,2.31,9.53,4,14,1.92,5.1,3.58,9.51,2.71,12.25l0,.08a10.67,10.67,0,0,1-1.65,2.6c-1.1,1.37-1.71,2.15-.65,4.27a1.57,1.57,0,0,0,1.12.36,3.3,3.3,0,0,0,.72-.08,1,1,0,0,1,.64,1.85s-3.41,1.46-2.71,3.72a2.64,2.64,0,0,0,2.85,2h0a9.34,9.34,0,0,0,3.25-.71c2.89-1.11,3.94-3.71,5.16-6.72a87.44,87.44,0,0,0,2.7-8.58,1,1,0,0,1,.88-.73,1,1,0,0,1,1,.6,15.53,15.53,0,0,0,2.47,4,21.2,21.2,0,0,0,5.37,4.61,1,1,0,0,1-.47,1.83c-.82,0-3.11.29-3.93,1.42a2.13,2.13,0,0,0-.12,2c.22.7,1.77,1.86,3.44,2.05a12.93,12.93,0,0,0,1.45.08c3.59,0,8.46-1.18,12.38-2.13,1.66-.41,3.23-.79,4.53-1l2.58-.48c4.64-.86,8.32-1.54,8.85-3.21a1,1,0,0,1,.52-.59,1,1,0,0,1,.79,0c2.49,1,5.42,2.07,11.45,2a61,61,0,0,0,7.33-.84,75.91,75.91,0,0,1,10.65-1.1,13.58,13.58,0,0,1,6,1.08c1.69.84,2.56,1.79,2.66,2.89.16,1.7-1.48,3-3.21,4.29-1.17.89-2.62,2-2.71,2.84a1,1,0,0,0,.29.75,4.46,4.46,0,0,0,3.09,1c4.78,0,8.81-3.92,9.43-7.44a7.73,7.73,0,0,0-1.51-6.38c-2.13-2.74-6.21-4.5-11.19-4.85-.23,0-.51,0-.81,0-1.74,0-4.35.28-7.11.58a110.8,110.8,0,0,1-11.17.81,20.58,20.58,0,0,1-6.49-.81c-2.09-.72-3.27-2-3.51-3.67a.93.93,0,0,1,0-.29c.26-1.63.55-3.17.83-4.66,1.86-10,3.33-17.87-6.6-33.17A61.38,61.38,0,0,0,144.1,459.6c-2.92-1.94-4.69-3.11-4.71-4.88,0-3.15-3.07-9.05-3.1-9.11a.88.88,0,0,1-.11-.42,35.4,35.4,0,0,0-1.28-7.74,1.06,1.06,0,0,1,0-.53c1.58-5.71,2-12.62,1.09-13.47a1.38,1.38,0,0,0-.6-.13c-1.79,0-4.39,2.61-6.69,4.91-1,1-2,2-2.9,2.78a1,1,0,0,1-.8.22c-1.28-.2-2.51-.46-3.82-.74a56,56,0,0,0-7.68-1.23,1,1,0,0,1-.81-.56c-2.14-4.48-7.58-8.86-9.53-8.86a.35.35,0,0,0-.14,0c-1,.77-2,8.39-1.32,13.86a1,1,0,0,1,0,.45c-.07.21-.15.44-.25.71C100.51,437.32,98.68,442.39,99.45,446Zm66.66,78.29a13,13,0,0,0,2-4.35,1,1,0,0,1,1.22-.66,1,1,0,0,1,.66,1.23,15.1,15.1,0,0,1-2.41,5,1,1,0,0,1-.75.35,1,1,0,0,1-.63-.23A1,1,0,0,1,166.11,524.28Zm-63-74.54a1,1,0,0,1,1.18-.74,9,9,0,0,1,4.26,2.39,1,1,0,0,1-.74,1.63,1,1,0,0,1-.73-.33,7.24,7.24,0,0,0-3.23-1.78A1,1,0,0,1,103.08,449.74Zm9.69,15.9h-.06a9.9,9.9,0,0,1-5.4-1.73,14.36,14.36,0,0,1-2.86-2.84,1,1,0,1,1,1.5-1.28,12.38,12.38,0,0,0,2.43,2.47l.14.1a7.86,7.86,0,0,0,4.32,1.32,1,1,0,0,1-.07,2ZM129,495.1c0,.1-4.69,10.33-1.86,19.77a1,1,0,0,1-.66,1.22,1,1,0,0,1-.28,0,1,1,0,0,1-.94-.69c-3-10.17,1.76-20.73,2-21.17a1,1,0,0,1,1.31-.48A1,1,0,0,1,129,495.1Zm9,30.2s2.28.16,8.67-1a1,1,0,0,1,1.14.79,1,1,0,0,1-.79,1.14,51.53,51.53,0,0,1-8.67,1,3.5,3.5,0,0,1-.53,0,1,1,0,0,1-.88-1.06A1,1,0,0,1,138,525.3Zm-10.76-94.49a1,1,0,0,1,1.35-.33,31,31,0,0,1,5.65,4.44,1,1,0,0,1,0,1.39,1,1,0,0,1-1.39,0,29.91,29.91,0,0,0-5.25-4.13A1,1,0,0,1,127.28,430.81Zm-8.06,23a10.18,10.18,0,0,1,6.46-1.91,1,1,0,0,1-.12,2,8.36,8.36,0,0,0-5.13,1.5,1,1,0,0,1-.6.2,1,1,0,0,1-.61-1.75Zm-2.8,10.3a13.86,13.86,0,0,0,3.82-1.57c.74-.47,1.58-1,2.51-1.67a20.37,20.37,0,0,1,2.37-1.38,18.19,18.19,0,0,0,4.75-3.23C134,452,134.75,448,134.75,448a1,1,0,0,1,1.94.33c0,.18-.82,4.6-5.41,9.32a20,20,0,0,1-5.25,3.59,19.22,19.22,0,0,0-2.13,1.24c-1,.7-1.85,1.25-2.62,1.74a15.65,15.65,0,0,1-4.44,1.83l-.21,0a1,1,0,0,1-.21-1.94Zm-.62,56.81c0,.88,0,2.19,0,3.42a1,1,0,0,1-1,1h0a1,1,0,0,1-1-1c0-1.2,0-2.49,0-3.36a1,1,0,0,1,1-1A1,1,0,0,1,115.8,520.89Zm-.91-62.24a1,1,0,0,1,0,1,3.81,3.81,0,0,1-2.63,1.26h0a.54.54,0,0,1-.21-.05c-.28-.15-1.68-.93-1.79-1.9a1.15,1.15,0,0,1,.46-1,2.29,2.29,0,0,1,1.49-.46A3.43,3.43,0,0,1,114.89,458.65Zm-12.27-28.16a15.86,15.86,0,0,1,7.13-3,1,1,0,1,1,.21,1.95,14.07,14.07,0,0,0-6.14,2.58,1,1,0,0,1-.6.21,1,1,0,0,1-.78-.38A1,1,0,0,1,102.62,430.49Z"/><path class="cls-8" d="M110.18,458.94c.11,1,1.51,1.75,1.79,1.9a.54.54,0,0,0,.21.05h0a3.81,3.81,0,0,0,2.63-1.26,1,1,0,0,0,0-1,3.43,3.43,0,0,0-2.76-1.21,2.29,2.29,0,0,0-1.49.46A1.15,1.15,0,0,0,110.18,458.94Z"/><path class="cls-8" d="M107.05,452.69a1,1,0,0,0,.73.33,1,1,0,0,0,.74-1.63,9,9,0,0,0-4.26-2.39,1,1,0,1,0-.44,1.91A7.24,7.24,0,0,1,107.05,452.69Z"/><path class="cls-8" d="M119.83,455.53a1,1,0,0,0,.6-.2,8.36,8.36,0,0,1,5.13-1.5,1,1,0,0,0,.12-2,10.18,10.18,0,0,0-6.46,1.91,1,1,0,0,0,.61,1.75Z"/><path class="cls-8" d="M113.84,520.9c0,.87,0,2.16,0,3.36a1,1,0,0,0,1,1h0a1,1,0,0,0,1-1c0-1.23,0-2.54,0-3.42a1,1,0,0,0-1-1A1,1,0,0,0,113.84,520.9Z"/><path class="cls-8" d="M166.86,525.89a1,1,0,0,0,.75-.35,15.1,15.1,0,0,0,2.41-5,1,1,0,0,0-.66-1.23,1,1,0,0,0-1.22.66,13,13,0,0,1-2,4.35,1,1,0,0,0,.12,1.38A1,1,0,0,0,166.86,525.89Z"/><path class="cls-8" d="M116.63,466l.21,0a15.65,15.65,0,0,0,4.44-1.83c.77-.49,1.64-1,2.62-1.74a19.22,19.22,0,0,1,2.13-1.24,20,20,0,0,0,5.25-3.59c4.59-4.72,5.38-9.14,5.41-9.32a1,1,0,0,0-1.94-.33s-.74,4-4.88,8.28a18.19,18.19,0,0,1-4.75,3.23,20.37,20.37,0,0,0-2.37,1.38c-.93.67-1.77,1.2-2.51,1.67a13.86,13.86,0,0,1-3.82,1.57,1,1,0,0,0,.21,1.94Z"/><path class="cls-8" d="M112.84,463.68a7.86,7.86,0,0,1-4.32-1.32l-.14-.1a12.38,12.38,0,0,1-2.43-2.47,1,1,0,1,0-1.5,1.28,14.36,14.36,0,0,0,2.86,2.84,9.9,9.9,0,0,0,5.4,1.73h.06a1,1,0,0,0,.07-2Z"/><path class="cls-8" d="M127.62,432.16a29.91,29.91,0,0,1,5.25,4.13,1,1,0,0,0,1.39,0,1,1,0,0,0,0-1.39,31,31,0,0,0-5.65-4.44,1,1,0,1,0-1,1.68Z"/><path class="cls-8" d="M103.22,432.25a1,1,0,0,0,.6-.21,14.07,14.07,0,0,1,6.14-2.58,1,1,0,1,0-.21-1.95,15.86,15.86,0,0,0-7.13,3,1,1,0,0,0-.18,1.38A1,1,0,0,0,103.22,432.25Z"/><path class="cls-8" d="M137.86,527.25a3.5,3.5,0,0,0,.53,0,51.53,51.53,0,0,0,8.67-1,1,1,0,0,0,.79-1.14,1,1,0,0,0-1.14-.79c-6.39,1.16-8.64,1-8.67,1a1,1,0,0,0-1.06.89A1,1,0,0,0,137.86,527.25Z"/><path class="cls-8" d="M97.51,446.3c0,.69.2,3.89,2.87,9.45,2.41,5,2.1,9,1.74,13.55-.06.69-.11,1.39-.16,2.11a24.52,24.52,0,0,0,1.94,12.36,28.75,28.75,0,0,1,2.2,8.7c.44,4.77,2.38,9.93,4.09,14.48s3.33,8.83,2.69,10.93a9,9,0,0,1-1.35,2.08c-1.19,1.49-2.53,3.18-.8,6.53a.8.8,0,0,0,.13.19,3,3,0,0,0,.86.68,4.31,4.31,0,0,0-1.41,4.53,4.58,4.58,0,0,0,4.72,3.37h0a11.14,11.14,0,0,0,4-.84c3.69-1.41,5-4.52,6.28-7.81.77-1.91,1.56-4.49,2.1-6.37a21,21,0,0,0,1.58,2.19,22.22,22.22,0,0,0,3.79,3.65,5.41,5.41,0,0,0-2.89,1.83,4,4,0,0,0-.4,3.72c.51,1.59,2.84,3.15,5.09,3.4a14.39,14.39,0,0,0,1.67.09c3.82,0,8.82-1.21,12.84-2.19,1.64-.39,3.19-.77,4.44-1l2.56-.48c5-.92,8.51-1.57,9.9-3.59a28,28,0,0,0,11.38,1.79,61.48,61.48,0,0,0,7.6-.86,74.4,74.4,0,0,1,10.36-1.08,11.78,11.78,0,0,1,5.15.88c1.13.56,1.56,1,1.59,1.32.06.61-1.39,1.73-2.46,2.54-1.61,1.24-3.28,2.52-3.46,4.19a2.92,2.92,0,0,0,.77,2.26l.06.06a6.2,6.2,0,0,0,4.5,1.64c4.72,0,10.41-3.65,11.36-9.07a9.76,9.76,0,0,0-1.89-7.93c-2.48-3.17-7.07-5.21-12.6-5.6-.28,0-.6,0-1,0-1.84,0-4.38.27-7.31.58a108.34,108.34,0,0,1-11,.8c-5,0-7.66-.89-8-2.65.25-1.54.53-3,.8-4.45,1.94-10.42,3.48-18.64-6.88-34.6A63.25,63.25,0,0,0,145.19,458c-2.06-1.37-3.83-2.54-3.84-3.28,0-3.29-2.66-8.67-3.22-9.78a37.29,37.29,0,0,0-1.27-7.73,49.7,49.7,0,0,0,1.47-8.85c.36-5.23-.71-6.31-1.52-6.66a3.35,3.35,0,0,0-1.43-.31c-2.61,0-5.39,2.79-8.08,5.48-.86.86-1.67,1.68-2.45,2.38-1.08-.18-2.15-.41-3.27-.65a61.34,61.34,0,0,0-7.38-1.22c-2.43-4.61-8-9.47-11-9.47a2.11,2.11,0,0,0-1.35.44c-2.11,1.69-2.6,10.86-2.08,15.42-.06.14-.11.3-.17.47C98.61,436.8,96.67,442.16,97.51,446.3Zm3.88-11.42c.1-.27.18-.5.25-.71a1,1,0,0,0,0-.45c-.69-5.47.36-13.09,1.32-13.86a.35.35,0,0,1,.14,0c1.95,0,7.39,4.38,9.53,8.86a1,1,0,0,0,.81.56,56,56,0,0,1,7.68,1.23c1.31.28,2.54.54,3.82.74a1,1,0,0,0,.8-.22c.93-.81,1.89-1.77,2.9-2.78,2.3-2.3,4.9-4.91,6.69-4.91a1.38,1.38,0,0,1,.6.13c.87.85.49,7.76-1.09,13.47a1.06,1.06,0,0,0,0,.53,35.4,35.4,0,0,1,1.28,7.74.88.88,0,0,0,.11.42c0,.06,3.05,6,3.1,9.11,0,1.77,1.79,2.94,4.71,4.88a61.38,61.38,0,0,1,19.21,19.11c9.93,15.3,8.46,23.18,6.6,33.17-.28,1.49-.57,3-.83,4.66a.93.93,0,0,0,0,.29c.24,1.71,1.42,2.95,3.51,3.67a20.58,20.58,0,0,0,6.49.81,110.8,110.8,0,0,0,11.17-.81c2.76-.3,5.37-.58,7.11-.58.3,0,.58,0,.81,0,5,.35,9.06,2.11,11.19,4.85a7.73,7.73,0,0,1,1.51,6.38c-.62,3.52-4.65,7.44-9.43,7.44a4.46,4.46,0,0,1-3.09-1,1,1,0,0,1-.29-.75c.09-.83,1.54-2,2.71-2.84,1.73-1.33,3.37-2.59,3.21-4.29-.1-1.1-1-2.05-2.66-2.89a13.58,13.58,0,0,0-6-1.08,75.91,75.91,0,0,0-10.65,1.1,61,61,0,0,1-7.33.84c-6,.08-9-.94-11.45-2a1,1,0,0,0-.79,0,1,1,0,0,0-.52.59c-.53,1.67-4.21,2.35-8.85,3.21l-2.58.48c-1.3.25-2.87.63-4.53,1-3.92,1-8.79,2.13-12.38,2.13a12.93,12.93,0,0,1-1.45-.08c-1.67-.19-3.22-1.35-3.44-2.05a2.13,2.13,0,0,1,.12-2c.82-1.13,3.11-1.41,3.93-1.42a1,1,0,0,0,.47-1.83,21.2,21.2,0,0,1-5.37-4.61,15.53,15.53,0,0,1-2.47-4,1,1,0,0,0-1-.6,1,1,0,0,0-.88.73,87.44,87.44,0,0,1-2.7,8.58c-1.22,3-2.27,5.61-5.16,6.72a9.34,9.34,0,0,1-3.25.71h0a2.64,2.64,0,0,1-2.85-2c-.7-2.26,2.68-3.71,2.71-3.72a1,1,0,0,0-.64-1.85,3.3,3.3,0,0,1-.72.08,1.57,1.57,0,0,1-1.12-.36c-1.06-2.12-.45-2.9.65-4.27a10.67,10.67,0,0,0,1.65-2.6l0-.08c.87-2.74-.79-7.15-2.71-12.25-1.67-4.44-3.56-9.47-4-14a30.44,30.44,0,0,0-2.32-9.23,22.51,22.51,0,0,1-1.81-11.52c0-.71.1-1.4.15-2.08.37-4.67.72-9.07-1.92-14.57-2.73-5.67-2.68-8.63-2.68-8.65a1.1,1.1,0,0,0,0-.25C98.68,442.39,100.51,437.32,101.39,434.88Z"/><path class="cls-8" d="M128.54,493.79a1,1,0,0,0-1.31.48c-.2.44-5,11-2,21.17a1,1,0,0,0,.94.69,1,1,0,0,0,.28,0,1,1,0,0,0,.66-1.22c-2.83-9.44,1.82-19.67,1.86-19.77A1,1,0,0,0,128.54,493.79Z"/><circle class="cls-6" cx="449.07" cy="761.1" r="19.49"/><path class="cls-6" d="M447.78,741.65s-4.87,20,17.6,30.14"/><path class="cls-6" d="M441.68,743.07s-3.8,21.69,20.45,32.51"/><path class="cls-6" d="M436.19,746.47s-2,25.79,23.56,30.95"/><path class="cls-6" d="M458.07,743.81s-3.34,0-10.6,5.21"/><path class="cls-6" d="M461.74,746.28s-9.31,3-13,8.51"/><path class="cls-6" d="M464.14,748.72s-10.28,5-12.3,12.34"/><path class="cls-6" d="M468.41,758.65s-6.13-5.82-10.66-5.7"/><path class="cls-6" d="M468.45,763.27s-6.95-5.58-14.3-5.75"/><path class="cls-6" d="M467.4,767.76s-7.33-5.37-13.29-3.85"/><path class="cls-6" d="M437,755.1s-6,2.77-7.36,5"/><path class="cls-6" d="M443.44,768.49s-1.47,6,.15,11.32"/><path class="cls-6" d="M448.88,780.6c-1.4-6-.34-7.64-.34-7.64"/><path class="cls-6" d="M437.16,767.85s-3.37,1.42-4.58,3.65"/><path class="cls-6" d="M405,759.1s5.58-7.53,12.87,2.43c0,0,6.75,12.42,20.2,15.67,0,0-2.57-10,.72-16.2,0,0-5.42,2-8.35,5.86"/><path class="cls-9" d="M278.33,520.47c-8.86,0-16.07-2-16.51-4.58h-.05l4.82,34.48H290l4.76-34.1C293.66,518.64,286.73,520.47,278.33,520.47Z"/><path class="cls-4" d="M637.28,244.84a12.52,12.52,0,0,0-3-.32c.11,1.4,2.78,6.4,5.52,8.86a.9.9,0,0,1,.25,1,32.35,32.35,0,0,0,0,13.41c.93,3.83,3.11,6.62,5,9.09.59.75,1.14,1.47,1.62,2.16,1.74,2.52,6.47,3.42,6.52,3.43a.91.91,0,0,1,.62.44.88.88,0,0,1,.07.76c-.24.67-2.4,6.55-4.18,8a.86.86,0,0,1-.55.21c-2.3.09-2.67.44-3.57,1.64a2.9,2.9,0,0,0-.28,2.53,2.47,2.47,0,0,0,2.06,1.46,7.16,7.16,0,0,0,1.71.08c3.34-.22,6.66-3.67,8.44-5.53,1.13-1.18,1.52-1.58,2.16-1.46a1,1,0,0,1,.78,1.34c-.35,1.92-3.11,11-5.45,13.92a.9.9,0,0,1-.45.3c-2.22.65-3.8,1.73-4.46,3a3.16,3.16,0,0,0-.1,2.61,2.82,2.82,0,0,0,2.39,1.69,13.11,13.11,0,0,0,5.67-.56c1.81-.53,4.3-4.48,6.93-8.67a104.26,104.26,0,0,1,6.23-9.14c4.49-5.66,6-10.75,7.28-15.25.35-1.22.69-2.38,1.08-3.53,4.89-14.25,11.49-24.22,17.32-33,4.19-6.32,8.15-12.29,10.87-19a81,81,0,0,0,5.35-21.76c.65-4.82,1.27-9.37,3.15-14,2.41-5.91,4.21-11.25,4.35-11.65.78-2.86.67-6.54.57-10.1-.11-3.79-.22-7.37.83-9.56,1.23-2.55,3.52-4.77,6-7.12,3.17-3.08,6.45-6.26,7.85-10.56,1-3,.92-5.58-.18-7.42a5.09,5.09,0,0,0-3.52-2.4,6.43,6.43,0,0,0-2.19,0c-1.46.23-2,1.29-3.23,3.87-1.79,3.79-4.5,9.53-13.52,16.75-7.74,6.18-9.81,10.58-9.83,10.62a.89.89,0,0,1-1.08.5.92.92,0,0,1-.65-1c.06-.35,1.32-8.62,3.83-13a20.52,20.52,0,0,1,3.47-4.33,14.09,14.09,0,0,0,3.92-5.84,7.63,7.63,0,0,0-.45-6.21,3.12,3.12,0,0,0-2-1.63,2.36,2.36,0,0,0-1.65.39c-1.76,1.11-2.5,2.55-3.44,4.37a21.8,21.8,0,0,1-4.18,6c-4.37,4.41-7.18,7.53-7.2,7.56a.92.92,0,0,1-1,.25.9.9,0,0,1-.61-.8c-.3-4.7,2.71-12.78,5.62-20.6,1.44-3.88,2.8-7.54,3.69-10.6,1.71-5.85,2.57-13.13.66-16.22a3.2,3.2,0,0,0-3-1.59c-3.26,0-5.64,7.12-8,14-.35,1-.7,2.09-1.07,3.15-1.33,3.85-2.83,7.48-4.28,11a126.94,126.94,0,0,0-5.14,14c-3.14,11.22-4,22.56-4.49,29.33-.08,1.07-.15,2-.22,2.8s-.13,1.55-.17,2.15c-.27,3.56-.29,3.85-2.78,10.88-1.23,3.45-2.42,9.22-3.67,15.34-1.67,8.07-3.39,16.42-5.42,20.43-.58,1.15-1.67,3.29-7.12,9.49-3.52,4-4.29,6.3-5,8.32a16.53,16.53,0,0,1-1.18,2.9.94.94,0,0,1-.62.46,11.31,11.31,0,0,0-3.95,2.05,6.09,6.09,0,0,1-3,1.46,7.33,7.33,0,0,1-1.27-.15l-2-.42C639.19,245.22,638.2,245,637.28,244.84ZM692,171.65a.93.93,0,0,1-.67.13l-.2-.06a.89.89,0,0,1-.53-.68c-.05-.3-1.28-7.69,1.1-20.69a.91.91,0,1,1,1.79.33,72.15,72.15,0,0,0-1.26,18.61,37.35,37.35,0,0,0,7.9-7.52.91.91,0,0,1,1.48,1.06A38.62,38.62,0,0,1,692,171.65ZM659.47,289.49a28.51,28.51,0,0,0,1.06-5.53.9.9,0,0,1,1-.81.91.91,0,0,1,.82,1,29.11,29.11,0,0,1-1.15,5.93.91.91,0,0,1-1,.6l-.13,0A.92.92,0,0,1,659.47,289.49Zm-5.24-6.24a.91.91,0,0,1,1.08-.71c3,.63,4.35-.74,6.42-2.81a25.25,25.25,0,0,1,4.43-3.73c7.78-4.9,8-16.38,8-16.49a.91.91,0,1,1,1.82,0,28,28,0,0,1-1.15,6.91c-1.47,5-4.14,8.84-7.72,11.1A23.73,23.73,0,0,0,663,281c-2.16,2.17-4,4.05-7.82,3.36l-.25-.05A.92.92,0,0,1,654.23,283.25Zm6.71-5.8c-.33.33-1,.59-3.89.28h0a.6.6,0,0,1-.49-.45.63.63,0,0,1,.23-.65,5.65,5.65,0,0,1,2.43-1.08,3.15,3.15,0,0,1,.44,0,2,2,0,0,1,1.46,1.22A.62.62,0,0,1,660.94,277.45Zm-8.6-34.9a.91.91,0,0,1-1-.87.9.9,0,0,1,.86-1c2-.11,12-.27,17.09,6.32a14.62,14.62,0,0,1,2,0,31.92,31.92,0,0,0,8-.7.71.71,0,0,1,.25,0,1.59,1.59,0,0,1,1.39,1.14c.8,2.4-2.3,6.91-5.62,9.94a.94.94,0,0,1-.78.22,1,1,0,0,1-.51-.28.92.92,0,0,1,.06-1.29c4-3.68,5.27-6.92,5.16-7.86a33.25,33.25,0,0,1-8,.66,10.91,10.91,0,0,0-2.2.07.93.93,0,0,1-.87-.38C663.7,242.15,653.49,242.49,652.34,242.55Zm-1.88,37.57a.92.92,0,0,1,.4-.59,3.26,3.26,0,0,1,2.47-.2,1.58,1.58,0,0,1,1.13.82.45.45,0,0,1,0,.23c0,.21,0,.72-1.79,1.29a.46.46,0,0,1-.26,0h-.06a6.29,6.29,0,0,1-1.32-.59,1.73,1.73,0,0,1-.56-.65A.59.59,0,0,1,650.46,280.12Zm-5.78-5.67a.6.6,0,0,1,.36-.32,3.13,3.13,0,0,1,1.56-.13,3.55,3.55,0,0,1,2.4,2.05.6.6,0,0,1,0,.55.59.59,0,0,1-.47.29,5,5,0,0,1-1.29-.05,3.27,3.27,0,0,1-2.53-1.91A.57.57,0,0,1,644.68,274.45Z"/><path class="cls-8" d="M632.93,243.16a1.59,1.59,0,0,0-.46,1.24c0,2.16,3,7.25,5.7,9.94a35.24,35.24,0,0,0,.1,13.85c1,4.21,3.43,7.3,5.37,9.78.57.73,1.12,1.43,1.56,2.07,1.61,2.33,4.93,3.49,6.64,3.94-.85,2.19-2.16,5.09-3.08,6.1-2.52.14-3.4.74-4.61,2.35a4.7,4.7,0,0,0-.52,4.29,4.2,4.2,0,0,0,3.43,2.58,8.38,8.38,0,0,0,2.16.1c3.51-.22,6.72-3.1,8.78-5.19-1,3.26-2.78,8.3-4.22,10.29a8.52,8.52,0,0,0-5.29,3.89,5,5,0,0,0-.18,4.07,4.55,4.55,0,0,0,3.77,2.84,15.4,15.4,0,0,0,6.5-.6c2.48-.72,4.9-4.57,8-9.45a105,105,0,0,1,6.12-9c4.71-5.93,6.25-11.21,7.6-15.87.35-1.21.68-2.34,1.05-3.46,4.81-14,11.35-23.89,17.12-32.6,4.24-6.4,8.25-12.44,11-19.27,3.7-9.06,4.64-16,5.47-22.21.66-4.91,1.23-9.14,3-13.56,2.51-6.18,4.38-11.73,4.4-11.79v0c.86-3.13.75-7,.64-10.67s-.21-6.92.65-8.71c1.09-2.26,3.27-4.37,5.57-6.61,3.18-3.08,6.79-6.57,8.32-11.3,1.45-4.46.61-7.31-.34-8.91a6.87,6.87,0,0,0-4.76-3.26,8.48,8.48,0,0,0-2.8,0c-2.48.39-3.37,2.28-4.6,4.89-1.72,3.65-4.32,9.15-13,16.1a51.52,51.52,0,0,0-7.77,7.5,32.58,32.58,0,0,1,2.76-8.06,18.52,18.52,0,0,1,3.19-3.95,16,16,0,0,0,4.35-6.53,9.53,9.53,0,0,0-.61-7.72,4.82,4.82,0,0,0-3.21-2.5,4,4,0,0,0-2.93.64c-2.19,1.37-3.12,3.17-4.1,5.08a20.31,20.31,0,0,1-3.85,5.6c-2.38,2.4-4.3,4.42-5.57,5.77.6-4.57,3.13-11.35,5.4-17.45,1.45-3.91,2.82-7.6,3.73-10.72.61-2.1,3.5-12.77.46-17.69a5,5,0,0,0-4.55-2.45c-4.56,0-6.92,7.07-9.66,15.21-.34,1-.7,2.08-1.06,3.13-1.31,3.81-2.8,7.41-4.24,10.89a126.81,126.81,0,0,0-5.21,14.15c-3.2,11.4-4.05,22.84-4.56,29.69-.08,1.05-.15,2-.22,2.78s-.12,1.56-.17,2.17c-.25,3.4-.27,3.6-2.68,10.4-1.27,3.57-2.47,9.4-3.74,15.58-1.64,8-3.33,16.18-5.25,20-.55,1.08-1.57,3.09-6.87,9.12-3.77,4.28-4.59,6.76-5.32,8.95a17.64,17.64,0,0,1-.87,2.24,13.91,13.91,0,0,0-4.2,2.25,6.94,6.94,0,0,1-2,1.13,5.57,5.57,0,0,1-.91-.12c-.54-.1-1.24-.25-2-.41-.89-.19-1.89-.41-2.84-.58C634.84,242.54,633.57,242.57,632.93,243.16Zm1.36,1.36a12.52,12.52,0,0,1,3,.32c.92.17,1.91.38,2.78.57l2,.42a7.33,7.33,0,0,0,1.27.15,6.09,6.09,0,0,0,3-1.46,11.31,11.31,0,0,1,3.95-2.05.94.94,0,0,0,.62-.46,16.53,16.53,0,0,0,1.18-2.9c.68-2,1.45-4.32,5-8.32,5.45-6.2,6.54-8.34,7.12-9.49,2-4,3.75-12.36,5.42-20.43,1.25-6.12,2.44-11.89,3.67-15.34,2.49-7,2.51-7.32,2.78-10.88,0-.6.1-1.3.17-2.15s.14-1.73.22-2.8c.5-6.77,1.35-18.11,4.49-29.33a126.94,126.94,0,0,1,5.14-14c1.45-3.5,2.95-7.13,4.28-11,.37-1.06.72-2.11,1.07-3.15,2.31-6.85,4.69-13.94,8-14a3.2,3.2,0,0,1,3,1.59c1.91,3.09,1,10.37-.66,16.22-.89,3.06-2.25,6.72-3.69,10.6-2.91,7.82-5.92,15.9-5.62,20.6a.9.9,0,0,0,.61.8.92.92,0,0,0,1-.25s2.83-3.15,7.2-7.56a21.8,21.8,0,0,0,4.18-6c.94-1.82,1.68-3.26,3.44-4.37a2.36,2.36,0,0,1,1.65-.39,3.12,3.12,0,0,1,2,1.63,7.63,7.63,0,0,1,.45,6.21,14.09,14.09,0,0,1-3.92,5.84,20.52,20.52,0,0,0-3.47,4.33c-2.51,4.38-3.77,12.65-3.83,13a.92.92,0,0,0,.65,1,.89.89,0,0,0,1.08-.5s2.09-4.44,9.83-10.62c9-7.22,11.73-13,13.52-16.75,1.21-2.58,1.77-3.64,3.23-3.87a6.43,6.43,0,0,1,2.19,0,5.09,5.09,0,0,1,3.52,2.4c1.1,1.84,1.16,4.4.18,7.42-1.4,4.3-4.68,7.48-7.85,10.56-2.43,2.35-4.72,4.57-6,7.12-1,2.19-.94,5.77-.83,9.56.1,3.56.21,7.24-.57,10.1-.14.4-1.94,5.74-4.35,11.65-1.88,4.64-2.5,9.19-3.15,14a81,81,0,0,1-5.35,21.76c-2.72,6.66-6.68,12.63-10.87,19-5.83,8.81-12.43,18.78-17.32,33-.39,1.15-.73,2.31-1.08,3.53-1.31,4.5-2.79,9.59-7.28,15.25a104.26,104.26,0,0,0-6.23,9.14c-2.63,4.19-5.12,8.14-6.93,8.67a13.11,13.11,0,0,1-5.67.56,2.82,2.82,0,0,1-2.39-1.69,3.16,3.16,0,0,1,.1-2.61c.66-1.32,2.24-2.4,4.46-3a.9.9,0,0,0,.45-.3c2.34-2.89,5.1-12,5.45-13.92a1,1,0,0,0-.78-1.34c-.64-.12-1,.28-2.16,1.46-1.78,1.86-5.1,5.31-8.44,5.53a7.16,7.16,0,0,1-1.71-.08,2.47,2.47,0,0,1-2.06-1.46,2.9,2.9,0,0,1,.28-2.53c.9-1.2,1.27-1.55,3.57-1.64a.86.86,0,0,0,.55-.21c1.78-1.48,3.94-7.36,4.18-8a.88.88,0,0,0-.07-.76.91.91,0,0,0-.62-.44c-.05,0-4.78-.91-6.52-3.43-.48-.69-1-1.41-1.62-2.16-1.93-2.47-4.11-5.26-5-9.09a32.35,32.35,0,0,1,0-13.41.9.9,0,0,0-.25-1C637.07,250.92,634.4,245.92,634.29,244.52Z"/><path class="cls-8" d="M692,171.65a.93.93,0,0,1-.67.13l-.2-.06a.89.89,0,0,1-.53-.68c-.05-.3-1.28-7.69,1.1-20.69a.91.91,0,1,1,1.79.33,72.15,72.15,0,0,0-1.26,18.61,37.35,37.35,0,0,0,7.9-7.52.91.91,0,0,1,1.48,1.06A38.62,38.62,0,0,1,692,171.65Z"/><path class="cls-8" d="M652.34,242.55a.91.91,0,0,1-1-.87.9.9,0,0,1,.86-1c2-.11,12-.27,17.09,6.32a14.62,14.62,0,0,1,2,0,31.92,31.92,0,0,0,8-.7.71.71,0,0,1,.25,0,1.59,1.59,0,0,1,1.39,1.14c.8,2.4-2.3,6.91-5.62,9.94a.94.94,0,0,1-.78.22,1,1,0,0,1-.51-.28.92.92,0,0,1,.06-1.29c4-3.68,5.27-6.92,5.16-7.86a33.25,33.25,0,0,1-8,.66,10.91,10.91,0,0,0-2.2.07.93.93,0,0,1-.87-.38C663.7,242.15,653.49,242.49,652.34,242.55Z"/><path class="cls-8" d="M655.31,282.54c3,.63,4.35-.74,6.42-2.81a25.25,25.25,0,0,1,4.43-3.73c7.78-4.9,8-16.38,8-16.49a.91.91,0,1,1,1.82,0,28,28,0,0,1-1.15,6.91c-1.47,5-4.14,8.84-7.72,11.1A23.73,23.73,0,0,0,663,281c-2.16,2.17-4,4.05-7.82,3.36l-.25-.05a.91.91,0,1,1,.37-1.79Z"/><path class="cls-8" d="M657.05,277.73h0a.6.6,0,0,1-.49-.45.63.63,0,0,1,.23-.65,5.65,5.65,0,0,1,2.43-1.08,3.15,3.15,0,0,1,.44,0,2,2,0,0,1,1.46,1.22.62.62,0,0,1-.14.66C660.61,277.78,659.91,278,657.05,277.73Z"/><path class="cls-8" d="M645,274.13a3.13,3.13,0,0,1,1.56-.13,3.55,3.55,0,0,1,2.4,2.05.6.6,0,0,1,0,.55.59.59,0,0,1-.47.29,5,5,0,0,1-1.29-.05,3.27,3.27,0,0,1-2.53-1.91.57.57,0,0,1,0-.48A.6.6,0,0,1,645,274.13Z"/><path class="cls-8" d="M653.33,279.33a1.58,1.58,0,0,1,1.13.82.45.45,0,0,1,0,.23c0,.21,0,.72-1.79,1.29a.46.46,0,0,1-.26,0h-.06a6.29,6.29,0,0,1-1.32-.59,1.73,1.73,0,0,1-.56-.65.59.59,0,0,1,0-.32.92.92,0,0,1,.4-.59A3.26,3.26,0,0,1,653.33,279.33Z"/><path class="cls-8" d="M660.53,284a.9.9,0,0,1,1-.81.91.91,0,0,1,.82,1,29.11,29.11,0,0,1-1.15,5.93.91.91,0,0,1-1,.6l-.13,0a.92.92,0,0,1-.57-1.16A28.51,28.51,0,0,0,660.53,284Z"/><ellipse class="cls-6" cx="278.21" cy="514.98" rx="16.55" ry="4.83"/></g></g></svg>